<svg width="117" height="23" viewBox="0 0 117 23" fill="none" xmlns="http://www.w3.org/2000/svg">
<path d="M17.2949 21.5285H17.1989L17.1669 21.5605H17.0709L17.0389 21.5925H16.9109C16.5909 21.5925 16.2602 21.5285 15.9189 21.4005C15.5775 21.2725 15.2362 21.0592 14.8949 20.7605C14.2762 20.2698 13.8922 19.7578 13.7429 19.2245L11.1829 21.6565C9.73221 20.8245 8.58021 20.3765 7.72688 20.3125H7.34288C7.19354 20.3125 7.03354 20.3018 6.86288 20.2805C6.69221 20.2805 6.53221 20.2805 6.38288 20.2805C6.25488 20.2592 6.13754 20.2485 6.03088 20.2485C4.43088 20.2485 3.01221 20.7605 1.77488 21.7845C2.00954 20.5898 2.71354 19.5765 3.88688 18.7445C4.86821 18.0192 5.92421 17.5285 7.05488 17.2725C7.28954 17.2512 7.56688 17.2192 7.88688 17.1765C8.20688 17.1338 8.54821 17.0805 8.91088 17.0165C8.95354 17.0378 9.00688 17.0485 9.07088 17.0485C9.15621 17.0485 9.23088 17.0592 9.29488 17.0805C9.46554 17.1232 9.66821 17.1658 9.90288 17.2085C10.1375 17.2298 10.4042 17.2725 10.7029 17.3365C10.8095 17.3578 11.0655 17.4432 11.4709 17.5925C11.8762 17.7205 12.4202 17.9018 13.1029 18.1365L13.2949 17.8485L13.2629 17.7845C13.1562 17.5285 13.0709 17.1018 13.0069 16.5045C12.6442 13.7098 12.0255 12.2165 11.1509 12.0245V13.7525C11.1509 14.8618 10.4149 15.7472 8.94288 16.4085C8.38821 16.6858 7.97221 16.8245 7.69488 16.8245L7.63088 16.8565H7.56688L7.50288 16.8885H7.02288C7.25754 16.6112 7.42821 16.3658 7.53488 16.1525C7.66288 15.9178 7.72688 15.6832 7.72688 15.4485V6.1365C7.72688 5.8805 7.73754 5.73117 7.75888 5.6885C7.75888 4.89917 8.14288 4.23783 8.91088 3.7045V3.6405L14.2549 0.536499C15.5349 1.13383 16.3882 2.24317 16.8149 3.8645C16.8362 3.97117 16.8469 4.06717 16.8469 4.1525C16.8682 4.2165 16.8895 4.29117 16.9109 4.3765C16.9109 4.41917 16.9109 4.46183 16.9109 4.5045C16.9322 4.54717 16.9429 4.58983 16.9429 4.6325V5.0805C16.9429 6.12583 16.6229 7.1925 15.9829 8.2805C15.4495 9.2405 14.7349 9.99783 13.8389 10.5525C15.1189 11.1712 15.9402 12.3658 16.3029 14.1365V14.1045L16.3349 14.2325C16.3562 14.3392 16.3775 14.4352 16.3989 14.5205C16.4202 14.6272 16.4309 14.7338 16.4309 14.8405C16.4522 14.9258 16.4842 15.0325 16.5269 15.1605C16.5269 15.3098 16.6442 15.7685 16.8789 16.5365C17.0922 17.1552 17.2735 17.5605 17.4229 17.7525C17.6789 18.0725 18.0415 18.2325 18.5109 18.2325C18.5535 18.2112 18.5962 18.2005 18.6389 18.2005C18.6815 18.1792 18.7242 18.1578 18.7669 18.1365H18.7349C18.8202 18.0938 18.9375 18.0512 19.0869 18.0085C19.2575 17.9658 19.4282 17.9232 19.5989 17.8805L17.2949 21.5285ZM7.08688 4.6645L7.31088 4.6965C7.26821 4.73917 7.23621 4.80317 7.21488 4.8885L7.15088 5.0165V4.9845L7.11888 5.1125C7.07621 5.21917 7.03354 5.32583 6.99088 5.4325C6.99088 5.5605 6.96954 5.70983 6.92688 5.8805L6.86288 6.2005L6.83088 15.0325C6.83088 15.3952 6.71354 15.7685 6.47888 16.1525C6.26554 16.5152 5.94554 16.9205 5.51888 17.3685C4.60154 18.2218 3.70554 18.6485 2.83088 18.6485C3.21488 18.1792 3.40688 17.7845 3.40688 17.4645V13.0165L3.27888 12.8885L3.15088 12.8245H3.08688L3.05488 12.7925C2.94821 12.8352 2.80954 12.9418 2.63888 13.1125C2.63888 13.1552 2.62821 13.1978 2.60688 13.2405C2.58554 13.2618 2.57488 13.2938 2.57488 13.3365L2.54288 13.3685V13.4965L2.44688 13.4005V13.6245C2.40421 13.6245 2.38288 13.6352 2.38288 13.6565C2.34021 13.6778 2.27621 13.6885 2.19088 13.6885C1.50821 13.6885 1.12421 13.1125 1.03888 11.9605L1.00688 11.8965V11.7045C1.00688 11.0218 1.22021 10.4672 1.64688 10.0405C2.07354 9.5925 2.64954 9.34717 3.37488 9.3045V9.0485L3.34288 8.9845V8.8245C3.34288 7.82183 3.63088 7.02183 4.20688 6.4245C4.65488 5.9765 5.34821 5.48583 6.28688 4.9525C6.45754 4.86717 6.59621 4.7925 6.70288 4.7285C6.83088 4.6645 6.98021 4.61117 7.15088 4.5685L7.08688 4.6645ZM9.96688 1.0165C9.88154 1.50717 9.72154 1.96583 9.48688 2.3925C9.25221 2.79783 8.96421 3.1605 8.62288 3.4805C8.30288 3.77917 7.92954 4.0245 7.50288 4.2165C7.07621 4.38717 6.62821 4.48317 6.15888 4.5045V4.5365H5.99888C5.27354 4.5365 4.64421 4.39783 4.11088 4.1205H4.14288C4.14288 4.09917 4.13221 4.0885 4.11088 4.0885C4.00421 4.0885 3.92954 4.07783 3.88688 4.0565H3.91888C3.15088 3.82183 2.71354 3.7045 2.60688 3.7045C2.00954 3.7045 1.31621 4.1205 0.526875 4.9525V4.5685C0.526875 3.97117 0.622875 3.4805 0.814875 3.0965C0.964208 2.7765 1.15621 2.47783 1.39088 2.2005C1.62554 1.92317 1.88154 1.67783 2.15887 1.4645C2.45754 1.25117 2.75621 1.0805 3.05488 0.952499C3.37488 0.803165 3.68421 0.728498 3.98288 0.728498L4.01488 0.696499H4.14288C4.44154 0.696499 5.07088 0.856499 6.03088 1.1765L6.06288 1.2085H6.09488C6.69221 1.5285 7.24688 1.6885 7.75888 1.6885L7.85488 1.5925C7.87621 1.5925 7.90821 1.60317 7.95088 1.6245C8.01488 1.6245 8.05754 1.6245 8.07888 1.6245L8.11088 1.6565C8.23888 1.6565 8.49488 1.5605 8.87888 1.3685C9.30554 1.1765 9.57221 1.02717 9.67888 0.9205C9.70021 0.9205 9.72154 0.909833 9.74288 0.888498L9.96688 1.0165ZM14.0629 7.3525C14.0629 7.2885 14.0735 7.20317 14.0949 7.0965V6.7445C14.0735 6.6805 14.0522 6.6165 14.0309 6.5525C14.0309 6.4885 14.0309 6.40317 14.0309 6.2965C13.9455 6.1045 13.8922 5.93383 13.8709 5.7845C13.8282 5.63517 13.7855 5.45383 13.7429 5.2405C13.3802 4.2165 12.8362 3.5125 12.1109 3.1285C11.4709 3.5765 11.1509 3.9285 11.1509 4.1845V10.8725H11.2149C11.3002 10.8512 11.3749 10.8298 11.4389 10.8085C11.5242 10.7658 11.7802 10.6378 12.2069 10.4245V10.4565C12.6335 10.1578 12.9855 9.79517 13.2629 9.3685C13.5615 8.9205 13.7962 8.4085 13.9669 7.8325C13.9669 7.78983 13.9669 7.74717 13.9669 7.7045C13.9882 7.66183 14.0095 7.6085 14.0309 7.5445C14.0522 7.4805 14.0629 7.4165 14.0629 7.3525ZM30.2631 12.0245C30.0071 12.1525 29.4951 12.4405 28.7271 12.8885C27.9805 13.3152 26.9565 13.9125 25.6551 14.6805C25.4631 14.7872 25.2498 14.9258 25.0151 15.0965V17.4965C25.6765 17.6032 26.2845 17.7418 26.8391 17.9125C27.4151 18.0832 27.9485 18.2858 28.4391 18.5205L29.2071 17.7205L30.0071 18.4565L27.0951 21.6565L26.7751 21.4965C26.3271 21.2618 25.8898 21.0378 25.4631 20.8245C25.0365 20.6325 24.5458 20.4832 23.9911 20.3765C23.0525 20.1845 22.2418 20.0885 21.5591 20.0885C21.3031 20.0885 21.0471 20.1098 20.7911 20.1525C20.5351 20.1738 20.2791 20.2058 20.0231 20.2485C20.0658 20.1418 20.1085 20.0565 20.1511 19.9925C20.1938 19.9072 20.2365 19.8432 20.2791 19.8005V19.8325C20.4285 19.5978 20.5458 19.4058 20.6311 19.2565C20.7378 19.1072 20.8018 19.0218 20.8231 19.0005C20.9725 18.8085 21.2605 18.5525 21.6871 18.2325V10.4885C21.6871 10.1685 21.5165 9.63517 21.1751 8.8885V8.4405L21.4631 8.7285H21.6551L21.6871 8.7605H21.7831L21.8791 8.7925H22.0071C23.6925 8.7925 25.5911 8.0885 27.7031 6.6805C27.8098 7.0645 27.9485 7.4805 28.1191 7.9285C28.2898 8.3765 28.5245 8.87783 28.8231 9.4325C29.1005 9.92317 29.3565 10.3818 29.5911 10.8085C29.8471 11.2138 30.0818 11.5658 30.2951 11.8645L30.2631 12.0245ZM25.2711 9.4965L25.0151 9.5605V13.6565L26.7431 12.5365C26.6578 12.4085 26.5511 12.2485 26.4231 12.0565C26.3165 11.8432 26.1885 11.5765 26.0391 11.2565C25.8898 10.9792 25.7511 10.6912 25.6231 10.3925C25.4951 10.0938 25.3778 9.79517 25.2711 9.4965ZM43.0596 7.3205C42.505 9.02717 41.3316 10.7978 39.5396 12.6325L42.5476 12.5685C42.5476 12.5898 42.537 12.6325 42.5156 12.6965C42.5156 12.7605 42.5156 12.8032 42.5156 12.8245C42.4943 12.8672 42.4836 12.9205 42.4836 12.9845L42.4516 13.0165V13.0805L42.3876 13.1445V13.2085L42.3556 13.2725C42.3556 13.3152 42.345 13.3472 42.3236 13.3685C42.3236 13.3898 42.3236 13.4112 42.3236 13.4325V13.4005C42.3023 13.4645 42.281 13.5392 42.2596 13.6245L42.2276 13.7525V19.1925C42.2276 19.2352 42.2383 19.2672 42.2596 19.2885V19.3845L42.2916 19.4485V19.4165C42.313 19.4378 42.3236 19.4592 42.3236 19.4805L42.3556 19.6405L42.3236 19.5765L42.2916 19.5445C42.2916 19.5658 42.313 19.6085 42.3556 19.6725C42.4196 19.7792 42.4836 19.8858 42.5476 19.9925L42.6756 20.2485C42.441 20.2485 42.3023 20.2378 42.2596 20.2165H42.2916C42.2703 20.1952 42.2383 20.1845 42.1956 20.1845C41.9396 20.1845 41.7263 20.1845 41.5556 20.1845C41.385 20.1632 41.2463 20.1205 41.1396 20.0565C40.8196 20.0565 40.6276 20.0458 40.5636 20.0245H40.3716C38.7503 20.0245 37.417 20.5792 36.3716 21.6885L35.4436 20.7605C35.273 20.6112 35.113 20.4938 34.9636 20.4085C34.8143 20.3445 34.6436 20.3125 34.4516 20.3125C34.3236 20.2485 34.1423 20.2165 33.9076 20.2165C32.9263 20.2165 32.2436 20.6858 31.8596 21.6245H30.9316C31.1023 20.8778 31.401 20.1205 31.8276 19.3525C32.2543 18.5632 32.8303 17.7205 33.5556 16.8245L33.6836 16.6965C33.7476 16.6325 33.8223 16.5472 33.9076 16.4405C34.0143 16.3338 34.1316 16.2165 34.2596 16.0885L32.1476 15.9925L32.3716 15.7685L32.3396 15.8645C32.5316 15.6085 32.6276 15.3418 32.6276 15.0645L32.6596 15.0005L32.6276 9.4325C32.6276 9.41117 32.617 9.4005 32.5956 9.4005C32.5956 9.37917 32.5956 9.35783 32.5956 9.3365V9.3685C32.5743 9.34717 32.5636 9.29383 32.5636 9.2085L32.4676 8.9845V8.9525C32.425 8.90983 32.4036 8.84583 32.4036 8.7605V8.4725C32.617 8.6645 32.841 8.7605 33.0756 8.7605C33.225 8.84583 33.5983 8.8885 34.1956 8.8885C34.217 8.90983 34.3236 8.9205 34.5156 8.9205C35.497 8.9205 36.4463 8.67517 37.3636 8.1845C37.449 8.14183 37.8756 7.7365 38.6436 6.9685C39.3263 7.75783 39.9663 8.1525 40.5636 8.1525C41.1823 8.1525 41.6836 7.84317 42.0676 7.2245L42.9316 7.1605L43.0596 7.3205ZM38.9316 18.9365V14.9045L38.8676 14.8405H37.2356L35.5716 16.5045C35.4223 16.6538 35.2516 16.8458 35.0596 17.0805C34.8676 17.2938 34.633 17.5392 34.3556 17.8165C34.6116 17.7738 34.8356 17.7418 35.0276 17.7205C35.2196 17.6778 35.369 17.6565 35.4756 17.6565C36.585 17.6565 37.5343 18.1472 38.3236 19.1285L38.4516 19.0645L38.5476 19.0325C38.5903 19.0325 38.665 19.0112 38.7716 18.9685H38.8996L38.9316 18.9365ZM39.9876 10.4565C39.625 10.6058 39.241 10.6805 38.8356 10.6805C38.217 10.6805 37.513 10.3712 36.7236 9.7525C36.6596 9.77383 36.617 9.79517 36.5956 9.8165H36.4676C36.3396 9.8805 36.2223 9.9125 36.1156 9.9125V13.9445H36.4676C36.6383 13.8378 36.873 13.6352 37.1716 13.3365C37.4916 13.0378 37.897 12.6432 38.3876 12.1525C39.113 11.3845 39.6463 10.8192 39.9876 10.4565ZM54.8809 18.0085C55.0089 18.6272 55.2542 19.0218 55.6169 19.1925C53.3129 19.5338 51.4675 20.4618 50.0809 21.9765C48.8435 20.6965 46.6889 19.8965 43.6169 19.5765C43.5315 19.5765 43.4889 19.5445 43.4889 19.4805C43.4889 19.3525 43.6169 19.1285 43.8729 18.8085C44.2355 18.3178 44.5022 17.9872 44.6729 17.8165V9.7205C44.3315 9.29383 44.1609 8.9525 44.1609 8.6965V8.6645C46.3795 8.5365 48.1715 7.8965 49.5369 6.7445C51.9902 7.9605 53.9742 8.64317 55.4889 8.7925C55.0835 9.26183 54.8809 9.5925 54.8809 9.7845V18.0085ZM51.1369 10.2325C49.4089 9.50717 48.4382 9.1445 48.2249 9.1445C48.1822 9.1445 48.1609 9.15517 48.1609 9.1765V17.5925C48.5022 17.9552 49.4942 18.3072 51.1369 18.6485V10.2325ZM70.5764 18.8405L70.4484 18.6165C70.1284 18.7445 69.883 18.8085 69.7124 18.8085L69.6484 18.8405H69.5844C68.5604 18.8405 68.0484 18.2965 68.0484 17.2085V10.9365C69.115 10.6165 69.6484 9.8165 69.6484 8.5365H69.4244L69.3924 8.5685H69.3284L69.2964 8.6005H69.2324L69.2004 8.6325L69.1364 8.6965C69.0084 8.73917 68.8484 8.7605 68.6564 8.7605C68.187 8.7605 67.4084 8.1845 66.3204 7.0325C64.699 8.65383 63.547 9.57117 62.8644 9.7845L63.4724 10.6805L64.1124 10.3605C64.1977 10.4672 64.2617 10.5525 64.3044 10.6165C64.3684 10.6592 64.4217 10.7018 64.4644 10.7445L64.5604 10.7765L64.6244 10.8085H64.6564L64.7204 17.5605L64.5284 17.6565C64.4644 17.7205 64.4004 17.7525 64.3364 17.7525C64.1657 17.8805 64.0377 17.9872 63.9524 18.0725C63.867 18.1578 63.7817 18.2218 63.6964 18.2645V18.2325C63.6537 18.2538 63.6217 18.2752 63.6004 18.2965C63.6004 18.3178 63.579 18.3392 63.5364 18.3605L63.4724 18.3925L63.4084 18.4565C63.323 18.3925 63.2057 18.3178 63.0564 18.2325C62.9284 18.1258 62.7684 18.0085 62.5764 17.8805L62.5444 17.8485L62.6084 17.8805C62.6724 17.9018 62.715 17.9125 62.7364 17.9125C62.203 17.7632 61.8724 17.6352 61.7444 17.5285V9.6885C61.7444 8.49383 61.019 7.52317 59.5684 6.7765L56.4644 9.9765V10.2005H56.7524C56.795 10.2005 56.8377 10.2112 56.8804 10.2325C56.987 10.2752 57.115 10.3072 57.2644 10.3285C57.4137 10.3498 57.5417 10.3818 57.6484 10.4245L57.6164 10.3925C57.9577 10.5845 58.1817 10.8192 58.2884 11.0965V17.9445C57.5417 18.3285 57.0724 19.0645 56.8804 20.1525C57.1577 19.9392 57.5097 19.8325 57.9364 19.8325C58.8324 19.8325 59.9524 20.4512 61.2964 21.6885C61.595 21.3898 61.851 21.1338 62.0644 20.9205C62.299 20.7285 62.5124 20.5578 62.7044 20.4085C63.131 20.1098 63.4937 19.8538 63.7924 19.6405C64.091 19.4272 64.3577 19.2458 64.5924 19.0965C64.635 19.0752 64.6564 19.0538 64.6564 19.0325C64.6777 19.0112 64.7097 18.9898 64.7524 18.9685C64.987 20.3552 65.9364 21.2512 67.6004 21.6565L70.5764 18.8405ZM74.1569 6.4885C75.4795 7.27783 76.2475 7.84317 76.4609 8.1845H76.5569C76.6422 8.1845 76.7702 8.1525 76.9409 8.0885C77.4742 7.8965 78.2635 7.4485 79.3089 6.7445L79.7569 6.4245C80.8449 7.42717 81.8475 8.0565 82.7649 8.3125C82.7009 8.7605 82.4449 9.15517 81.9969 9.4965C81.5915 9.8165 81.0689 10.0085 80.4289 10.0725C80.2795 10.0938 80.1409 10.1045 80.0129 10.1045C79.3089 10.1045 78.4982 9.9765 77.5809 9.7205C77.3889 9.67783 77.2182 9.6565 77.0689 9.6565C76.7062 9.6565 76.5249 9.7845 76.5249 10.0405V18.8085H77.9009C76.4929 19.6405 75.5329 20.4298 75.0209 21.1765C74.6369 21.7525 74.4129 22.0405 74.3489 22.0405V21.9765L74.3169 21.9445C74.2955 21.8805 74.2742 21.8165 74.2529 21.7525C74.1675 21.5605 74.0395 21.3472 73.8689 21.1125C73.3569 20.4085 72.5355 19.7258 71.4049 19.0645L71.3729 18.8725H72.6209V10.5525C72.2582 9.50717 71.7249 8.96317 71.0209 8.9205L74.1569 6.4885ZM93.1894 8.1845C93.1467 8.93117 92.8374 9.5605 92.2614 10.0725C91.7067 10.5632 91.056 10.8085 90.3094 10.8085C89.328 10.8085 88.6347 10.5098 88.2294 9.9125V17.3365C88.4214 17.4432 88.6667 17.4965 88.9654 17.4965C88.9867 17.5178 89.0827 17.5605 89.2534 17.6245C89.4454 17.6672 89.7227 17.7525 90.0854 17.8805C90.2987 17.9658 90.48 18.0618 90.6294 18.1685C90.8 18.2538 90.9387 18.3605 91.0454 18.4885L91.8774 17.4965L92.6454 18.1045L89.7334 21.6885C88.2614 20.4512 86.64 19.8325 84.8694 19.8325C84.272 19.8325 83.8027 20.0245 83.4614 20.4085C83.6747 19.3845 84.1547 18.6165 84.9014 18.1045V10.8085C84.9014 10.7445 84.8907 10.6698 84.8694 10.5845C84.8694 10.4992 84.8694 10.3925 84.8694 10.2645C84.8054 10.1365 84.7734 9.95517 84.7734 9.7205C84.6667 9.4645 84.6134 9.28317 84.6134 9.1765C84.592 9.15517 84.56 9.0485 84.5174 8.8565V8.4405L84.8054 8.7285C84.848 8.77117 85.0507 8.7925 85.4134 8.7925C86.2027 8.7925 86.9707 8.61117 87.7174 8.2485C88.464 7.88583 89.072 7.3845 89.5414 6.7445C90.4587 7.93917 91.3014 8.5365 92.0694 8.5365C92.2187 8.5365 92.528 8.38717 92.9974 8.0885L93.1894 8.1845ZM103.919 12.0245C103.663 12.1525 103.151 12.4405 102.383 12.8885C101.637 13.3152 100.613 13.9125 99.3114 14.6805C99.1194 14.7872 98.906 14.9258 98.6714 15.0965V17.4965C99.3327 17.6032 99.9407 17.7418 100.495 17.9125C101.071 18.0832 101.605 18.2858 102.095 18.5205L102.863 17.7205L103.663 18.4565L100.751 21.6565L100.431 21.4965C99.9834 21.2618 99.546 21.0378 99.1194 20.8245C98.6927 20.6325 98.202 20.4832 97.6474 20.3765C96.7087 20.1845 95.898 20.0885 95.2154 20.0885C94.9594 20.0885 94.7034 20.1098 94.4474 20.1525C94.1914 20.1738 93.9354 20.2058 93.6794 20.2485C93.722 20.1418 93.7647 20.0565 93.8074 19.9925C93.85 19.9072 93.8927 19.8432 93.9354 19.8005V19.8325C94.0847 19.5978 94.202 19.4058 94.2874 19.2565C94.394 19.1072 94.458 19.0218 94.4794 19.0005C94.6287 18.8085 94.9167 18.5525 95.3434 18.2325V10.4885C95.3434 10.1685 95.1727 9.63517 94.8314 8.8885V8.4405L95.1194 8.7285H95.3114L95.3434 8.7605H95.4394L95.5354 8.7925H95.6634C97.3487 8.7925 99.2474 8.0885 101.359 6.6805C101.466 7.0645 101.605 7.4805 101.775 7.9285C101.946 8.3765 102.181 8.87783 102.479 9.4325C102.757 9.92317 103.013 10.3818 103.247 10.8085C103.503 11.2138 103.738 11.5658 103.951 11.8645L103.919 12.0245ZM98.9274 9.4965L98.6714 9.5605V13.6565L100.399 12.5365C100.314 12.4085 100.207 12.2485 100.079 12.0565C99.9727 11.8432 99.8447 11.5765 99.6954 11.2565C99.546 10.9792 99.4074 10.6912 99.2794 10.3925C99.1514 10.0938 99.034 9.79517 98.9274 9.4965ZM116.716 7.3205C116.161 9.02717 114.988 10.7978 113.196 12.6325L116.204 12.5685C116.204 12.5898 116.193 12.6325 116.172 12.6965C116.172 12.7605 116.172 12.8032 116.172 12.8245C116.151 12.8672 116.14 12.9205 116.14 12.9845L116.108 13.0165V13.0805L116.044 13.1445V13.2085L116.012 13.2725C116.012 13.3152 116.001 13.3472 115.98 13.3685C115.98 13.3898 115.98 13.4112 115.98 13.4325V13.4005C115.959 13.4645 115.937 13.5392 115.916 13.6245L115.884 13.7525V19.1925C115.884 19.2352 115.895 19.2672 115.916 19.2885V19.3845L115.948 19.4485V19.4165C115.969 19.4378 115.98 19.4592 115.98 19.4805L116.012 19.6405L115.98 19.5765L115.948 19.5445C115.948 19.5658 115.969 19.6085 116.012 19.6725C116.076 19.7792 116.14 19.8858 116.204 19.9925L116.332 20.2485C116.097 20.2485 115.959 20.2378 115.916 20.2165H115.948C115.927 20.1952 115.895 20.1845 115.852 20.1845C115.596 20.1845 115.383 20.1845 115.212 20.1845C115.041 20.1632 114.903 20.1205 114.796 20.0565C114.476 20.0565 114.284 20.0458 114.22 20.0245H114.028C112.407 20.0245 111.073 20.5792 110.028 21.6885L109.1 20.7605C108.929 20.6112 108.769 20.4938 108.62 20.4085C108.471 20.3445 108.3 20.3125 108.108 20.3125C107.98 20.2485 107.799 20.2165 107.564 20.2165C106.583 20.2165 105.9 20.6858 105.516 21.6245H104.588C104.759 20.8778 105.057 20.1205 105.484 19.3525C105.911 18.5632 106.487 17.7205 107.212 16.8245L107.34 16.6965C107.404 16.6325 107.479 16.5472 107.564 16.4405C107.671 16.3338 107.788 16.2165 107.916 16.0885L105.804 15.9925L106.028 15.7685L105.996 15.8645C106.188 15.6085 106.284 15.3418 106.284 15.0645L106.316 15.0005L106.284 9.4325C106.284 9.41117 106.273 9.4005 106.252 9.4005C106.252 9.37917 106.252 9.35783 106.252 9.3365V9.3685C106.231 9.34717 106.22 9.29383 106.22 9.2085L106.124 8.9845V8.9525C106.081 8.90983 106.06 8.84583 106.06 8.7605V8.4725C106.273 8.6645 106.497 8.7605 106.732 8.7605C106.881 8.84583 107.255 8.8885 107.852 8.8885C107.873 8.90983 107.98 8.9205 108.172 8.9205C109.153 8.9205 110.103 8.67517 111.02 8.1845C111.105 8.14183 111.532 7.7365 112.3 6.9685C112.983 7.75783 113.623 8.1525 114.22 8.1525C114.839 8.1525 115.34 7.84317 115.724 7.2245L116.588 7.1605L116.716 7.3205ZM112.588 18.9365V14.9045L112.524 14.8405H110.892L109.228 16.5045C109.079 16.6538 108.908 16.8458 108.716 17.0805C108.524 17.2938 108.289 17.5392 108.012 17.8165C108.268 17.7738 108.492 17.7418 108.684 17.7205C108.876 17.6778 109.025 17.6565 109.132 17.6565C110.241 17.6565 111.191 18.1472 111.98 19.1285L112.108 19.0645L112.204 19.0325C112.247 19.0325 112.321 19.0112 112.428 18.9685H112.556L112.588 18.9365ZM113.644 10.4565C113.281 10.6058 112.897 10.6805 112.492 10.6805C111.873 10.6805 111.169 10.3712 110.38 9.7525C110.316 9.77383 110.273 9.79517 110.252 9.8165H110.124C109.996 9.8805 109.879 9.9125 109.772 9.9125V13.9445H110.124C110.295 13.8378 110.529 13.6352 110.828 13.3365C111.148 13.0378 111.553 12.6432 112.044 12.1525C112.769 11.3845 113.303 10.8192 113.644 10.4565Z" fill="black"/>
</svg>
