<svg width="284" height="316" viewBox="0 0 284 316" fill="none" xmlns="http://www.w3.org/2000/svg">
<path d="M209.766 307.071L209.703 307.274C209.672 307.378 209.722 307.487 209.83 307.55L224.251 315.949C224.472 316.076 224.781 315.95 224.779 315.734L224.415 266.864V239.776C224.415 239.634 224.275 239.518 224.098 239.511L223.736 239.497C222.319 239.446 220.885 239.101 219.793 238.806C218.135 238.356 216.489 237.773 214.899 237.212C214.763 237.162 214.629 237.115 214.494 237.068C215.259 236.824 216.057 236.591 216.879 236.37C218.175 236.023 219.515 235.708 220.811 235.402C221.83 235.162 222.885 234.913 223.918 234.65L224.185 234.583C224.321 234.546 224.415 234.444 224.415 234.33V141.397C224.415 141.294 224.339 141.199 224.222 141.156L223.999 141.075C223.036 140.718 222.074 140.276 221.146 139.756C219.239 138.69 217.712 137.49 216.594 136.178C216.454 136.017 216.576 135.793 216.82 135.766C217.528 135.686 218.23 135.58 218.914 135.479L219.19 135.439C220.572 135.234 221.97 135.005 223.319 134.781L224.15 134.645C224.304 134.62 224.415 134.511 224.415 134.385V76.267C224.415 76.151 224.321 76.0482 224.181 76.0144L223.915 75.9483C223.323 75.8014 222.699 75.6339 221.955 75.4195C220.684 75.0567 219.418 74.6616 218.239 74.2812C217.973 74.193 217.962 73.8963 218.221 73.7964C220.067 73.0782 221.962 72.382 223.907 71.9164L224.178 71.8503C224.319 71.8165 224.415 71.7137 224.415 71.5962V49.2658C224.415 49.119 224.266 49 224.082 49H58.2754C58.0923 49 57.9429 49.119 57.9429 49.2658V104.192C57.9429 104.314 58.0456 104.418 58.1922 104.449L58.4771 104.508C60.3114 104.887 62.0033 105.194 63.6062 105.439C63.9006 105.483 63.976 105.793 63.7239 105.922C63.0446 106.269 62.3201 106.608 61.5365 106.945C60.5978 107.348 59.5874 107.748 58.3558 108.206L58.1354 108.287C58.0182 108.333 57.9429 108.425 57.9429 108.528V194.102C57.9429 194.245 58.083 194.363 58.2611 194.368L58.6214 194.38C60.1915 194.435 61.7915 194.549 63.3391 194.656C64.8183 194.76 66.3301 194.867 67.8498 194.927C68.1908 194.938 68.2906 195.303 67.9862 195.426C67.5545 195.602 67.1087 195.775 66.6432 195.951C64.7071 196.68 62.5296 197.409 59.7914 198.245C59.3296 198.385 58.8671 198.525 58.4054 198.663L58.1583 198.736C58.0291 198.776 57.9429 198.875 57.9429 198.985V210.211C57.9429 210.353 58.085 210.472 58.2631 210.476L58.6288 210.486C59.3116 210.504 60.0111 210.538 60.6884 210.572C61.2859 210.6 61.8926 210.631 62.5032 210.651C62.819 210.66 62.9418 210.983 62.6841 211.132C61.938 211.559 61.1745 211.972 60.4263 212.376L59.7023 212.769C59.3247 212.975 58.9446 213.178 58.5648 213.382L58.0901 213.634C57.9989 213.684 57.9429 213.767 57.9429 213.855V266.867L58.3071 315.734C58.3091 315.95 58.618 316.075 58.8362 315.946L91.6642 296.661C91.744 296.613 91.7934 296.54 91.7999 296.462L91.81 296.317C91.9637 294.24 92.3566 292.179 92.7917 290.228C92.834 290.038 93.1076 289.949 93.308 290.058C94.3838 290.649 95.5371 291.219 96.7501 291.759C97.2614 291.988 97.7706 292.203 98.2446 292.402L98.4507 292.488C98.5626 292.536 98.6992 292.527 98.8018 292.469L140.985 267.687C141.101 267.618 141.26 267.618 141.377 267.685L207.03 305.92C207.128 305.976 207.255 305.988 207.363 305.948L207.56 305.877C208.435 305.561 209.192 305.259 209.867 304.947C210.126 304.83 210.433 305.02 210.354 305.248C210.169 305.779 209.988 306.34 209.766 307.071Z" fill="#C98A16"/>
<path d="M224.417 238.811C222.994 238.76 221.558 238.44 220.242 238.087C218.096 237.51 216.041 236.741 213.965 236.023C213.748 235.949 213.746 235.639 213.965 235.566C215.063 235.193 216.177 234.861 217.306 234.562C219.657 233.937 222.056 233.434 224.417 232.835V140.174C223.369 139.79 222.365 139.324 221.427 138.803C219.28 137.611 217.326 136.093 216.021 134.269C215.886 134.08 216.063 133.883 216.311 133.865C217.46 133.787 218.6 133.611 219.734 133.445C221.299 133.214 222.858 132.956 224.417 132.702V74.9662C223.742 74.7985 223.075 74.6175 222.411 74.4292C220.58 73.9084 218.773 73.3302 216.975 72.7387C216.806 72.6828 216.714 72.4725 216.918 72.3945C219.35 71.4426 221.812 70.4495 224.417 69.8301V48H57.9429V102.471C60.1749 102.927 62.4233 103.329 64.7005 103.626C65.0645 103.673 65.0324 104.058 64.7939 104.195C63.6462 104.854 62.4341 105.441 61.1888 105.972C60.1238 106.426 59.038 106.846 57.9429 107.249V192.475C61.8589 192.611 65.7532 193.079 69.6778 193.068C70.0735 193.066 70.2251 193.506 69.8804 193.664C68.7156 194.198 67.5199 194.683 66.3055 195.138C64.0291 195.99 61.6943 196.741 59.3454 197.453C58.8786 197.593 58.4104 197.733 57.9429 197.873V208.607C59.9214 208.66 61.9083 208.834 63.871 208.787C64.1597 208.781 64.3694 209.116 64.1231 209.273C62.6187 210.234 60.9957 211.078 59.4022 211.94C58.9181 212.202 58.4304 212.46 57.9429 212.717V265.649L58.3063 314L90.6716 295.116C90.8483 292.73 91.3403 290.354 91.8876 288.012C91.9212 287.866 92.1834 287.777 92.3349 287.866C93.7339 288.68 95.2009 289.414 96.7147 290.083C97.2074 290.303 97.7058 290.512 98.2057 290.721L141.18 265.649L207.84 304.203C209.237 303.704 210.584 303.147 211.812 302.404C212.013 302.283 212.3 302.485 212.228 302.659C212.013 303.188 211.823 303.722 211.638 304.256C211.428 304.855 211.237 305.458 211.051 306.061L224.779 314L224.417 265.649V238.811Z" fill="#E8B04A"/>
<path d="M219.384 246.854C219.363 245.647 219.341 244.44 219.314 243.233C219.299 242.477 219.65 240.859 219.128 240.202C218.809 239.8 218.035 239.58 217.548 239.357C216.879 239.051 216.208 238.747 215.534 238.449C214.103 237.814 212.656 237.198 211.199 236.601C208.886 235.655 206.537 234.76 204.165 233.91C210.51 231.708 217.406 228.503 218.136 222.529C218.391 220.436 217.836 218.343 217.37 216.293C216.848 214.005 216.447 211.703 216.162 209.388C215.626 205.017 215.473 200.621 215.527 196.229C215.637 187.382 216.589 178.56 217 169.722C217.362 161.987 217.678 153.946 215.589 146.337C213.913 140.246 210.312 134.149 203.3 131.117C205.762 130.304 208.224 129.49 210.687 128.675C212.768 127.989 215.036 127.425 215.9 125.587C216.875 123.51 216.701 120.926 216.934 118.743C217.208 116.166 217.467 113.588 217.688 111.008C218.555 100.839 218.818 90.5714 216.953 80.458C216.839 79.8402 216.717 79.2239 216.587 78.6091C216.482 78.1146 216.51 77.3266 216.069 76.9377C215.655 76.5694 214.619 76.3126 214.073 76.091C213.29 75.7726 212.504 75.4527 211.721 75.1343C209.033 74.0425 206.346 72.9508 203.66 71.8576C207.721 70.9302 211.817 69.768 215.019 67.5302C218.279 65.2513 220.334 61.9027 219.654 58.4132C219.604 58.1623 219.246 57.9921 218.952 57.9862C179.579 57.3112 140.198 57.0104 100.815 57.0001C89.7072 56.9972 78.5994 57.05 67.4915 57.028C67.0213 57.0265 66.6983 57.3317 66.6661 57.6868C65.5878 69.6036 65.6712 81.5747 66.473 93.5018C65.8249 93.8554 65.5944 94.6977 66.4866 95.0733C70.9878 96.9648 75.5172 98.8138 80.0257 100.695C77.2126 102.212 74.4004 103.73 71.5873 105.245C69.1453 106.565 65.8872 107.812 64.7223 110.122C63.4324 112.682 64.1071 115.937 64.1624 118.625C64.2262 121.68 64.2887 124.734 64.3526 127.788C64.6125 140.327 64.8693 152.864 65.1306 165.403C65.2786 172.476 65.4473 179.547 65.6051 186.622C65.613 186.962 65.9318 187.396 66.3976 187.453C72.4105 188.171 78.4235 188.892 84.438 189.607C78.1192 194.195 71.8019 198.785 65.4831 203.374C65.1091 203.644 65.0919 204.22 65.4831 204.488C68.1001 206.283 71.1005 207.593 74.3816 208.348C70.6613 210.774 69.0046 214.532 68.4118 218.35C67.5626 223.809 68.5481 229.377 68.9041 234.839C69.8142 248.773 69.7396 262.737 69.3125 276.685C69.072 284.544 68.719 292.401 68.3651 300.26C68.337 300.877 69.1819 301.152 69.7986 300.916C80.9178 296.645 88.0887 286.907 87.6012 277.114C90.2018 279.387 92.8023 281.661 95.4036 283.934C95.7733 284.258 96.3619 284.184 96.7437 283.934C104.032 279.178 111.32 274.422 118.609 269.665C122.33 267.236 126.051 264.808 129.773 262.379C131.479 261.266 133.183 260.15 134.89 259.038C136.896 257.734 138.737 256.624 141.312 257.682C143.056 258.4 144.651 259.429 146.263 260.316C148.309 261.445 150.349 262.582 152.382 263.727C155.978 265.752 159.55 267.804 163.099 269.884C170.44 274.182 177.68 278.593 184.81 283.112C192.752 288.148 200.565 293.315 208.243 298.607C208.636 298.879 209.147 298.885 209.545 298.607C211.495 297.236 213.447 295.868 215.396 294.498C215.979 295.487 216.559 296.476 217.142 297.465C217.55 298.158 218.825 297.77 218.851 297.095C219.215 287.516 219.431 277.935 219.496 268.355C219.527 263.522 219.521 258.691 219.476 253.859C219.455 251.525 219.424 249.19 219.384 246.854Z" fill="#F7C86F"/>
<path d="M207.755 118.635C207.419 115.69 206.91 112.753 206.495 109.816C206.077 106.854 205.658 103.889 205.238 100.925C204.866 98.2905 204.694 95.5705 203.944 92.9812C203.313 90.8 202.003 88.7934 199.61 87.5413C197.264 86.3127 194.342 86.0133 191.601 85.8914C184.208 85.5627 176.773 85.5495 169.37 85.3865C161.843 85.2192 154.317 85.0533 146.79 84.8904C137.1 84.6805 127.41 84.5058 117.72 84.3429C115.014 83.9451 112.307 83.5517 109.597 83.1745C105.472 82.6005 101.308 82.122 97.1195 82.0192C89.3276 81.827 80.1403 83.0218 74.8245 88.0756C73.4706 89.3644 72.6048 90.9438 73.0428 92.6436C73.3831 93.9661 74.5631 95.0069 75.9552 95.7114C79.2718 97.3892 83.5905 97.4332 87.3248 98.0585C96.7749 99.6453 105.796 102.538 114.011 106.565C107.337 108.21 100.664 109.859 93.9909 111.506C90.052 112.477 86.1123 113.451 82.1734 114.422C79.1921 115.158 75.729 115.859 74.134 118.236C72.5524 120.59 73.2381 123.357 73.6759 125.869C74.2316 129.058 74.7916 132.245 75.3543 135.435C76.4915 141.874 77.6421 148.312 78.8072 154.749C79.9602 161.122 81.1274 167.494 82.3083 173.866C82.7692 176.347 83.1862 179.074 86.1812 180.454C88.4756 181.511 91.4002 181.586 93.9731 181.891C104.251 183.114 114.544 184.253 124.819 185.492C129.174 186.015 133.528 186.541 137.883 187.068C138.495 187.143 139.112 187.228 139.731 187.318C136.697 188.125 133.664 188.932 130.63 189.737C122.912 191.79 115.194 193.842 107.475 195.896C105.714 196.364 103.953 196.832 102.192 197.3C100.864 197.654 100.983 199.478 102.542 199.367C107.41 199.019 112.272 199.226 117.037 199.993C110.968 202.313 104.898 204.634 98.8288 206.956C95.2543 208.322 91.6794 209.689 88.1051 211.056C85.3334 212.117 81.7111 213.052 80.1368 215.345C79.383 216.441 79.174 217.699 79.1081 218.931C79.0211 220.515 79.055 222.107 79.0347 223.692C78.9961 226.86 78.9574 230.028 78.9179 233.196C78.8396 239.531 78.7585 245.866 78.6788 252.202C78.5891 259.297 78.4992 266.393 78.4095 273.487C78.3952 274.671 80.5387 274.873 80.9572 273.764C82.1819 270.514 83.406 267.264 84.6307 264.016C88.7469 267.345 95.0957 267.68 100.783 266.614C104.331 265.948 107.771 264.776 110.882 263.266C114.483 261.518 117.77 259.35 121.18 257.38C128.299 253.262 136.169 249.565 145.307 250.497C154.572 251.441 162.566 256.148 169.448 260.875C177.137 266.156 184.548 271.924 194.134 274.952C194.737 275.143 195.626 274.74 195.729 274.228C197.572 264.998 198.431 255.649 198.203 246.302C198.107 242.399 197.815 238.192 194.904 234.888C192.577 232.246 189.104 230.572 185.314 229.571C183.771 229.165 182.192 228.861 180.595 228.628C184.499 228.024 188.4 227.418 192.302 226.81C194.882 226.408 198.096 226.204 199.77 224.352C201.507 222.43 200.952 219.527 200.968 217.303C201.049 206.157 201.128 195.012 201.209 183.867C201.29 172.596 201.292 161.325 201.312 150.052C201.321 145.717 202.336 140.405 197.44 137.429C193.562 135.072 188.259 134.961 183.598 134.827C170.969 134.466 158.337 134.105 145.707 133.744C157.428 131.579 169.149 129.415 180.871 127.251C188.277 125.883 195.685 124.521 203.082 123.124C204.267 122.899 205.544 122.679 206.484 122.013C207.709 121.142 207.897 119.872 207.755 118.635Z" fill="#FACE7A"/>
<path d="M229.988 48.8334H52.27V6.97624H229.988V48.8334Z" fill="#FFD485"/>
<path d="M217.76 14.6305C217.553 12.8841 216.513 11.699 215.079 11.1106C214.033 10.6797 212.985 10.1431 211.89 9.91525C210.271 9.57755 208.633 9.33518 206.998 9.11351C204.568 8.7841 202.122 8.76128 199.674 8.72399C197.24 8.68463 194.782 8.96432 192.349 9.09484C189.906 9.22743 187.465 9.35175 185.021 9.46984C175.171 9.94634 165.317 10.3027 155.461 10.5471C135.824 11.0299 116.183 10.9429 96.5433 10.8289C91.0236 10.7978 85.5034 10.7295 79.9837 10.6238C77.2243 10.57 74.4648 10.4457 71.7076 10.5762C69.9918 10.659 68.0345 10.5078 66.3703 10.9905C65.1297 11.3489 64.1132 12.014 63.1608 13.0022C64.3263 11.7902 62.7474 13.2922 62.6278 13.4268C62.4968 13.6195 62.3661 13.8122 62.2351 14.0049C62.215 14.0194 62.1421 14.1085 62.0133 14.2721C60.5481 16.0559 60.7312 18.339 62.0133 20.1538C62.0584 20.2201 62.0941 20.2699 62.1263 20.3134C62.0318 20.187 61.9117 20.0378 61.8752 20.0274C62.0005 20.2097 62.1263 20.3941 62.2516 20.5764C62.5126 21.0322 62.841 21.4134 63.2324 21.72C63.2732 21.7677 63.3304 21.8278 63.4091 21.9127C63.9608 22.4949 64.5595 22.9196 65.2485 23.249C66.9555 24.0632 68.9237 24.1026 70.7611 24.3408C73.2056 24.6578 75.6338 24.8132 78.0928 24.9375C83.0587 25.1861 88.0259 25.4057 92.9947 25.5942C102.776 25.9671 112.548 26.1764 122.334 26.1598C142.133 26.1266 161.932 25.6253 181.712 24.6578C187.228 24.3884 192.743 24.0818 198.256 23.74C200.014 23.6302 201.763 23.2904 203.505 23.0252C204.892 22.816 206.285 22.6544 207.644 22.2835C208.998 21.9148 210.337 21.517 211.668 21.055C213.189 20.5288 214.568 19.6753 215.972 18.8486C217.295 18.0759 217.949 16.2175 217.76 14.6305Z" fill="#FFDD9E"/>
<path d="M134.897 32.5452C130.029 31.2925 124.852 31.5785 119.891 31.3572C115.014 31.1442 110.151 30.9208 105.27 30.8102C100.402 30.7037 95.5366 30.5095 90.6736 30.2339C88.1644 30.0919 85.6573 29.9291 83.1517 29.7412C80.6548 29.5554 78.147 29.7182 75.6427 29.6556C74.8274 29.6326 74.6217 31.1066 75.4464 31.3008C77.8561 31.8687 80.2455 32.6287 82.6823 32.9962C85.1866 33.3762 87.6937 33.7353 90.2028 34.0714C95.1389 34.7333 100.083 35.3116 105.036 35.8002C109.994 36.2908 114.915 36.5059 119.891 36.5476C124.839 36.5894 130.05 36.9548 134.897 35.6311C136.226 35.2678 136.248 32.8939 134.897 32.5452Z" fill="#FFDD9E"/>
<path d="M200.689 28.9298C198.659 28.7118 196.542 28.6501 194.555 28.1723C192.62 27.7054 190.562 27.9785 188.58 28.0401C184.463 28.17 180.342 28.5598 176.229 28.8351C172.193 29.1059 168.157 29.379 164.121 29.6521C162.089 29.7886 160.084 30.1189 158.067 30.425C157.131 30.5681 156.144 30.6099 155.226 30.8588C154.17 31.1451 153.113 31.6581 152.072 32.0193C151.455 32.2329 151.386 33.3978 152.072 33.5695C153.118 33.8316 154.175 34.2147 155.226 34.4239C156.15 34.6089 157.131 34.5825 158.067 34.6397C160.087 34.7653 162.097 34.9172 164.121 34.8731C168.238 34.7785 172.356 34.686 176.471 34.5935C180.504 34.501 184.553 34.5186 188.58 34.283C189.629 34.2236 190.679 34.1597 191.728 34.098C192.291 34.065 192.862 34.0606 193.423 33.9989C194.015 33.9329 194.435 33.6422 194.993 33.4594C196.936 32.823 199.084 32.6425 201.072 32.2461C202.782 31.9048 202.187 29.0927 200.689 28.9298Z" fill="#FFDD9E"/>
<path d="M58.6982 49.6335H225.137V53.1956L58.6982 51.4154V49.6335Z" fill="#D69B2F"/>
<path d="M236.54 54.0654H232.148C230.954 54.0654 229.988 52.7952 229.988 51.2317V2.83572C229.988 1.26817 230.954 -3.8147e-05 232.148 -3.8147e-05H236.54C237.733 -3.8147e-05 238.699 1.26817 238.699 2.83572V51.2317C238.699 52.7952 237.733 54.0654 236.54 54.0654Z" fill="#8D4D14"/>
<path d="M238.7 45.3453H244.692C247.155 45.3453 249.154 43.2888 249.154 40.7521V15.0596C249.154 12.5208 247.155 10.4643 244.692 10.4643H238.7V45.3453Z" fill="#8D4D14"/>
<path d="M249.153 34.2936L275.814 36.6002C280.232 36.9789 284 32.9787 284 27.9039C284 22.8292 280.232 18.8269 275.814 19.2099L249.153 21.5164V34.2936Z" fill="#8D4D14"/>
<path d="M283.221 25C282.542 29.0228 281.409 32.8206 277.727 32.5L249.539 29.972C249.539 29.9317 249.539 29.8934 249.539 29.853C249.499 27.0845 249.434 24.3199 249.313 21.5553C249.193 18.8271 249.352 15.8851 248.761 13.2274C248.739 13.1246 248.596 13.1185 248.576 13.2274C248.138 15.756 248.374 18.4662 248.318 21.0351C248.26 23.6283 248.215 26.2234 248.167 28.8166C248.127 31.1738 248.171 33.5432 248.024 35.8963C247.947 37.1042 247.808 38.306 247.533 39.4755C247.455 39.8103 247.357 40.1389 247.256 40.4656C246.611 40.9858 245.828 41.2923 244.983 41.2923H240.049C240.051 40.7076 240.056 40.1228 240.058 39.538C240.063 35.2934 240.039 31.0468 239.981 26.8042C239.925 22.6402 239.752 18.4863 239.567 14.3284C239.476 12.2515 239.384 10.1725 239.286 8.09354C239.197 6.19203 239.37 3.90335 238.869 2.08855C238.839 1.97765 238.689 1.96353 238.664 2.08855C238.322 3.87512 238.64 6.00651 238.675 7.83341C238.711 9.91236 238.741 11.9893 238.757 14.0683C238.785 18.3149 238.762 22.5575 238.795 26.8042C238.828 30.9601 238.832 35.122 238.804 39.2779C238.792 41.3589 238.769 43.4379 238.741 45.5168C238.72 47.015 238.512 48.729 238.603 50.3018C238.205 50.6245 237.721 50.816 237.198 50.816H232.221C230.869 50.816 229.774 49.5497 229.774 47.989V51.175C229.774 52.7337 230.869 54 232.221 54H237.198C238.287 54 239.206 53.1813 239.525 52.0461C239.66 51.9775 239.773 51.8485 239.821 51.6609C240.271 49.8703 240.009 47.6381 240.027 45.7769C240.03 45.3434 240.023 45.6955 240.027 45.2619H244.976C247.17 45.2619 248.95 43.2072 248.95 40.6725C249.132 39.8256 249.245 38.183 249.331 37.3986C249.485 35.9951 249.523 35.9176 249.539 34.5L261.791 35.4333L276.728 36.5C280.882 36.8589 283.721 31.8092 283.721 27C283.721 26.4535 283.307 25.5142 283.221 25Z" fill="#783D02"/>
<path d="M276.382 21.0067C273.85 20.7414 271.188 21.2204 268.661 21.4227C265.892 21.6403 263.118 21.8846 260.356 22.1976C259.053 22.3446 257.762 22.5259 256.468 22.7473C255.151 22.9744 253.773 23.1328 252.679 24.0375C252.628 24.0795 252.621 24.1578 252.679 24.1978C254.463 25.4117 257.199 25.2037 259.233 25.2323C261.775 25.2666 264.324 25.2647 266.865 25.1999C269.335 25.1388 271.808 25.1178 274.274 24.9937C275.053 24.9555 275.862 24.8792 276.632 25.0567C277.449 25.2457 277.986 25.7858 278.745 26.0931C279.407 26.3622 280.352 25.7915 280.47 25.0319C280.884 22.398 278.38 21.2185 276.382 21.0067Z" fill="#A35E26"/>
<path d="M247.018 14.3588C246.512 12.5166 245.406 10.6081 243.57 10.4669C242.739 10.4027 241.945 11.5217 242.252 12.4353C242.485 13.1285 242.88 13.6763 243.149 14.3481C243.465 15.1376 243.536 16.0041 243.557 16.8599C243.61 19.0359 243.393 21.2332 243.333 23.407C243.273 25.5616 243.241 27.7097 243.239 29.8621C243.237 31.8262 243.232 34.3103 244.037 36.0797C244.388 36.85 245.366 36.7622 245.737 36.0797C246.25 35.1319 246.423 33.9145 246.581 32.8233C246.762 31.5652 246.873 30.3285 246.956 29.0576C247.119 26.5501 247.23 24.0382 247.296 21.5221C247.356 19.1985 247.637 16.6182 247.018 14.3588Z" fill="#A35E26"/>
<path d="M236.829 19.1819C236.769 16.4132 236.648 13.6425 236.551 10.8739C236.461 8.21909 236.745 5.01758 235.549 2.54918C234.863 1.13068 232.641 1.79543 232.159 2.93645C231.603 4.2452 231.772 5.74031 231.744 7.11946C231.715 8.55039 231.736 9.97717 231.763 11.4081C231.817 14.0877 231.848 16.7715 231.938 19.4511C232.028 22.1307 232.059 24.8186 232.275 27.4941C232.389 28.923 232.541 30.358 232.691 31.7828C232.84 33.2137 233.206 34.4541 233.598 35.8312C233.89 36.8583 235.801 36.9204 236.05 35.8312C236.363 34.45 236.679 33.2075 236.753 31.7828C236.826 30.356 236.897 28.923 236.933 27.4941C237.009 24.7255 236.885 21.9506 236.829 19.1819Z" fill="#A35E26"/>
<path d="M46.1512 54.0654H51.42C52.8523 54.0654 54.0126 52.7952 54.0126 51.2317V2.83572C54.0126 1.26817 52.8523 -3.8147e-05 51.42 -3.8147e-05H46.1512C44.7199 -3.8147e-05 43.5586 1.26817 43.5586 2.83572V51.2317C43.5586 52.7952 44.7199 54.0654 46.1512 54.0654Z" fill="#8D4D14"/>
<path d="M43.5583 45.3453H38.5672C36.5122 45.3453 34.8467 43.2888 34.8467 40.7521V15.0596C34.8467 12.5208 36.5122 10.4643 38.5672 10.4643H43.5583V45.3453Z" fill="#8D4D14"/>
<path d="M34.8467 34.2936L8.18593 36.6002C3.76823 36.9789 0 32.9787 0 27.9039C0 22.8292 3.76823 18.8269 8.18593 19.2099L34.8467 21.5164V34.2936Z" fill="#8D4D14"/>
<path d="M7.62136 21.0067C10.1523 20.7414 12.814 21.2204 15.3402 21.4227C18.1112 21.6403 20.8821 21.8846 23.6455 22.1976C24.9483 22.3446 26.2392 22.5259 27.533 22.7473C28.8486 22.9744 30.2289 23.1328 31.3211 24.0375C31.372 24.0795 31.3809 24.1578 31.3211 24.1978C29.5391 25.4117 26.8039 25.2037 24.7687 25.2323C22.2261 25.2666 19.6771 25.2647 17.1366 25.1999C14.6667 25.1388 12.1942 25.1178 9.72802 24.9937C8.94945 24.9555 8.13918 24.8792 7.37099 25.0567C6.55315 25.2457 6.01596 25.7858 5.25676 26.0931C4.59581 26.3622 3.65013 25.7915 3.53045 25.0319C3.11779 22.398 5.62051 21.2185 7.62136 21.0067Z" fill="#A35E26"/>
<path d="M36.9838 14.3588C37.4899 12.5166 38.595 10.6081 40.4297 10.4669C41.2622 10.4027 42.0549 11.5217 41.7487 12.4353C41.5164 13.1285 41.1204 13.6763 40.8529 14.3481C40.5369 15.1376 40.4636 16.0041 40.4436 16.8599C40.3915 19.0359 40.6067 21.2332 40.6677 23.407C40.7273 25.5616 40.7596 27.7097 40.7611 29.8621C40.7617 31.8262 40.7692 34.3103 39.963 36.0797C39.6119 36.85 38.6339 36.7622 38.2636 36.0797C37.7508 35.1319 37.5759 33.9145 37.4194 32.8233C37.2379 31.5652 37.1261 30.3285 37.0447 29.0576C36.8816 26.5501 36.7691 24.0382 36.7037 21.5221C36.6442 19.1985 36.3636 16.6182 36.9838 14.3588Z" fill="#A35E26"/>
<path d="M47.1719 19.1819C47.2303 16.4132 47.3518 13.6425 47.4472 10.8739C47.54 8.21909 47.2554 5.01758 48.4485 2.54918C49.1353 1.13068 51.3566 1.79543 51.8396 2.93645C52.3949 4.2452 52.2281 5.74031 52.2559 7.11946C52.2846 8.55039 52.2632 9.97717 52.2345 11.4081C52.1825 14.0877 52.1503 16.7715 52.0613 19.4511C51.9713 22.1307 51.9388 24.8186 51.7238 27.4941C51.6077 28.923 51.4568 30.358 51.3075 31.7828C51.1582 33.2137 50.793 34.4541 50.4009 35.8312C50.1078 36.8583 48.1971 36.9204 47.9506 35.8312C47.6363 34.45 47.3202 33.2075 47.2478 31.7828C47.1757 30.356 47.1033 28.923 47.0653 27.4941C46.992 24.7255 47.1135 21.9506 47.1719 19.1819Z" fill="#A35E26"/>
<path d="M0.499355 25C1.17892 29.0228 2.31139 32.8206 5.99395 32.5L34.1818 29.972C34.1818 29.9317 34.1818 29.8934 34.1818 29.853C34.222 27.0845 34.2867 24.3199 34.4072 21.5553C34.5277 18.8271 34.3688 15.8851 34.9592 13.2274C34.982 13.1246 35.1252 13.1185 35.1444 13.2274C35.5829 15.756 35.3471 18.4662 35.403 21.0351C35.4606 23.6283 35.506 26.2234 35.5532 28.8166C35.5934 31.1738 35.5497 33.5432 35.6965 35.8963C35.7733 37.1042 35.9131 38.306 36.1873 39.4755C36.2659 39.8103 36.3638 40.1389 36.4651 40.4656C37.1097 40.9858 37.8924 41.2923 38.7379 41.2923H43.6713C43.6695 40.7076 43.6643 40.1228 43.6625 39.538C43.6573 35.2934 43.6817 31.0468 43.7394 26.8042C43.7953 22.6402 43.9682 18.4863 44.1534 14.3284C44.2443 12.2515 44.3368 10.1725 44.4347 8.09354C44.5238 6.19203 44.3508 3.90335 44.8522 2.08855C44.8819 1.97765 45.0321 1.96353 45.0566 2.08855C45.399 3.87512 45.081 6.00651 45.0461 7.83341C45.0094 9.91236 44.9797 11.9893 44.964 14.0683C44.936 18.3149 44.9587 22.5575 44.9256 26.8042C44.8924 30.9601 44.8889 35.122 44.9168 39.2779C44.9291 41.3589 44.9518 43.4379 44.9797 45.5168C45.0007 47.015 45.2086 48.729 45.1177 50.3018C45.516 50.6245 45.9999 50.816 46.5223 50.816H51.4993C52.8514 50.816 53.9468 49.5497 53.9468 47.989V51.175C53.9468 52.7337 52.8514 54 51.4993 54H46.5223C45.4339 54 44.515 53.1813 44.1953 52.0461C44.0608 51.9775 43.9473 51.8485 43.9001 51.6609C43.4494 49.8703 43.7114 47.6381 43.694 45.7769C43.6905 45.3434 43.6975 45.6955 43.694 45.2619H38.7449C36.5507 45.2619 34.7706 43.2072 34.7706 40.6725C34.5889 39.8256 34.4753 38.183 34.3897 37.3986C34.236 35.9951 34.1976 35.9176 34.1818 34.5L21.9297 35.4333L6.99297 36.5C2.83873 36.8589 -0.000152588 31.8092 -0.000152588 27C-0.000152588 26.4535 0.413754 25.5142 0.499355 25Z" fill="#783D02"/>
</svg>
