<svg width="192" height="123" viewBox="0 0 192 123" fill="none" xmlns="http://www.w3.org/2000/svg">
<path d="M93.0149 65.7453C91.7088 67.5783 91.0203 69.7978 89.8461 71.7344C89.2457 72.7267 88.6409 73.7236 87.9854 74.6813C87.6803 75.1321 87.3554 75.5688 87.0308 76.0037C86.8538 76.2377 86.6842 76.4769 86.5094 76.7121C86.4344 76.8119 86.3572 76.9107 86.2816 77.0107C86.0264 77.3506 86.4894 76.7568 86.2252 77.0869C84.759 78.9218 83.0867 80.5958 81.2775 82.0933C80.8557 82.4437 80.4237 82.781 79.99 83.1136C79.9136 83.1724 79.5579 83.4285 79.9613 83.1363C79.859 83.2102 79.7569 83.2857 79.656 83.3592C79.3822 83.557 79.1092 83.7494 78.8301 83.9398C77.88 84.5876 76.8976 85.1917 75.8884 85.749C74.6153 86.4532 73.3033 87.0859 71.9655 87.6526C71.7735 87.735 71.5822 87.8138 71.39 87.8928C71.4536 87.8666 71.7138 87.7654 71.3909 87.8908C71.0538 88.0215 70.7124 88.1481 70.3717 88.2693C69.689 88.5154 69.001 88.7422 68.307 88.9567C65.5154 89.8116 62.6542 90.3989 59.7653 90.8067C59.4552 90.8512 59.1445 90.8924 58.8327 90.9321C58.6252 90.958 58.4179 90.9838 58.2115 91.0076C58.2782 90.9996 58.6072 90.9694 58.2442 91.0011C57.5155 91.0654 56.7884 91.138 56.0584 91.1887C54.5999 91.2882 53.1378 91.3402 51.6764 91.3489C48.7643 91.367 45.8564 91.2062 42.9451 91.1378C41.333 91.0995 39.7231 91.0813 38.113 91.1754C36.3819 91.2772 34.565 91.3641 32.8756 91.7628C29.5535 92.5463 26.5177 94.0128 23.9034 96.2014C22.4929 97.3802 23.9327 100.155 25.7203 99.4573C27.0739 98.9299 28.454 98.6272 29.8613 98.2954C31.3967 97.9315 31.9847 97.8713 33.5379 97.7655C33.861 97.7436 34.183 97.7065 34.5032 97.6681C35.1322 97.5942 34.7258 97.6385 34.5911 97.6531C34.9457 97.6148 35.2989 97.5837 35.6552 97.557C36.421 97.499 37.189 97.4629 37.956 97.4444C39.4105 97.4046 40.8667 97.3938 42.3213 97.4093C45.2843 97.4389 48.2466 97.574 51.2112 97.5394C54.3577 97.4991 57.5023 97.2503 60.6194 96.8081C71.7997 95.2223 82.5272 90.1734 89.5642 81.1651C91.2359 79.0267 92.7092 76.6254 93.5863 74.0428C94.435 71.5468 95.3293 68.5819 94.6074 65.9836C94.3948 65.2199 93.4467 65.1369 93.0149 65.7453Z" fill="#A54E48"/>
<path d="M93.4567 73.1739C93.2255 73.9292 92.9415 74.6458 92.7949 75.4213C92.6184 76.3339 92.3781 77.2261 92.2306 78.1435C91.9763 79.7022 91.5775 81.2814 91.0772 82.7996C90.0886 85.8001 88.7061 88.4689 86.7623 91.2553C86.5238 91.5945 86.2765 91.9255 86.0297 92.2581C85.5565 92.8958 86.2441 92.0095 85.939 92.3792C85.8076 92.5363 85.6798 92.6976 85.5464 92.8552C84.9894 93.5155 84.4049 94.1551 83.7917 94.7638C83.2361 95.3185 82.6589 95.8492 82.0582 96.3564C81.7417 96.6235 81.4172 96.8805 81.0928 97.1375C81.5326 96.7913 81.0056 97.199 80.8949 97.2801C80.6018 97.4896 80.3057 97.6946 80.0061 97.8919C79.1866 98.433 78.3369 98.9176 77.4703 99.3754C77.0596 99.5918 76.6486 99.8048 76.2274 100.001C75.9477 100.132 75.6642 100.256 75.3801 100.377C75.8897 100.161 75.1199 100.474 75.0084 100.514C74.041 100.857 73.05 101.135 72.0428 101.335C71.5988 101.423 71.1507 101.495 70.7021 101.56C70.4507 101.595 70.2011 101.628 69.948 101.657C70.5923 101.582 69.611 101.685 69.5751 101.688C67.1374 101.909 64.4734 101.848 62.1336 102.63C60.908 103.04 60.0748 103.348 58.7917 104.039C57.6971 104.63 56.4668 105.303 55.8647 106.427C55.2944 107.486 55.9595 108.746 57.1784 108.817C58.1883 108.878 59.2639 108.482 60.1845 108.378C61.1165 108.276 62.2046 108.365 63.2071 108.35C65.326 108.316 67.4614 108.175 69.5713 107.967C74.3244 107.493 78.8207 106.191 82.7397 103.369C88.9356 98.9117 93.4435 92.4989 95.1991 85.037C95.6726 83.0162 95.9532 80.9277 96.0229 78.8538C96.0574 77.7937 95.9094 76.7566 95.7156 75.7171C95.5337 74.7437 95.1511 73.9101 94.7076 73.0295C94.4364 72.4911 93.6224 72.6319 93.4567 73.1739Z" fill="#A54E48"/>
<path d="M89.6982 81.1574C91.3699 79.0191 92.8432 76.6177 93.721 74.035C94.2287 72.5409 94.7533 70.8768 94.9374 69.2268C94.73 69.9744 94.4909 70.704 94.2566 71.3978C93.3776 73.9808 91.9043 76.3822 90.2319 78.5207C89.3882 79.603 88.4891 80.6232 87.5431 81.5929C86.6846 81.8069 85.8489 82.1396 84.9835 82.3312C83.7968 82.5926 82.5276 82.5101 81.4222 83.0482C81.2653 83.1253 81.257 83.3898 81.4184 83.4687C82.5716 84.0445 83.894 83.7373 85.1025 83.4446C85.3302 83.3895 85.5686 83.3284 85.806 83.2606C84.312 84.6104 82.7155 85.8338 81.0401 86.937C80.4682 87.0537 79.8895 87.1427 79.2845 87.1623C77.9429 87.2102 76.6444 86.8502 75.3217 86.8778C75.1603 86.8818 75.0892 87.0946 75.2339 87.1829C76.4063 87.9111 78.0733 87.9064 79.4125 87.7866C79.5212 87.7785 79.6345 87.7675 79.7434 87.7558C78.2388 88.668 76.6758 89.4842 75.0688 90.213C73.9745 90.3442 72.8683 90.4231 71.7883 90.4058C70.0687 90.3804 68.4055 89.7832 66.7056 89.8013C66.3429 89.8071 66.246 90.244 66.519 90.4436C67.9641 91.5026 70.1723 91.5425 71.9057 91.4799C71.9384 91.4786 71.9723 91.4771 72.0045 91.476C68.5573 92.7533 64.9461 93.6434 61.2873 94.1636C58.1715 94.6038 55.0262 94.8544 51.8773 94.8936C48.9132 94.9299 45.9524 94.7926 42.9891 94.7648C41.5354 94.7508 40.0792 94.7617 38.6252 94.7979C37.8568 94.8185 37.0875 94.8549 36.3217 94.9129C36.0325 94.9332 35.7477 94.9593 35.4614 94.9875C35.4093 94.9954 35.3208 95.0053 35.1724 95.0216C34.8513 95.062 34.5283 95.0976 34.2044 95.1214C32.6508 95.2255 32.0666 95.2849 30.5272 95.6497C29.1206 95.9831 27.7413 96.2839 26.3886 96.8128C25.5241 97.1492 24.7407 96.6745 24.3237 95.9618C24.2266 96.0378 24.1314 96.1133 24.0389 96.1917C22.6279 97.374 24.0663 100.146 25.8561 99.4493C27.2083 98.9239 28.588 98.6196 29.9953 98.2877C31.5314 97.9237 32.1183 97.862 33.6719 97.7578C33.995 97.736 34.3169 97.6989 34.6372 97.6605C34.7865 97.6423 34.8756 97.6321 34.9258 97.6248C35.2121 97.5966 35.5012 97.5711 35.7891 97.5494C36.555 97.4914 37.323 97.4553 38.0916 97.4346C39.5449 97.3986 41.0011 97.3878 42.4553 97.4016C45.4185 97.4294 48.381 97.568 51.3454 97.5299C54.4917 97.4914 57.6359 97.241 60.7515 96.8009C71.9337 95.2147 82.6618 90.1656 89.6982 81.1574Z" fill="#AD2518"/>
<path d="M92.8267 75.9C92.6935 76.5237 92.5461 77.1441 92.4298 77.7706C92.584 77.1502 92.7164 76.5232 92.8267 75.9Z" fill="#AD2518"/>
<path d="M82.7113 103.402C88.905 98.9435 93.4162 92.5334 95.1698 85.0719C95.3493 84.3089 95.4998 83.5358 95.6234 82.7573C95.54 83.0941 95.4513 83.4253 95.3565 83.7563C95.3089 83.6714 95.2046 83.618 95.1067 83.6821C94.2436 84.2461 93.6423 85.0971 92.757 85.658C91.8753 86.2145 90.8761 86.5085 89.9575 86.9931C89.7499 87.1018 89.8506 87.4031 90.0637 87.4191C91.2549 87.514 92.3218 86.9804 93.2819 86.311C93.9582 85.842 94.7151 85.2578 95.1304 84.5137C94.4606 86.6612 93.5576 88.7097 92.4501 90.6331C91.4671 91.1648 90.5179 91.6778 89.4254 91.9847C88.3521 92.2868 87.2103 92.1658 86.1604 92.4862C85.8121 92.5904 85.8366 93.0211 86.1468 93.151C87.2325 93.6072 88.7219 93.2289 89.7998 92.8859C90.3907 92.6989 90.9795 92.4502 91.5272 92.1393C90.5264 93.6734 89.3873 95.1212 88.1303 96.4672C87.177 96.7066 86.2188 96.9697 85.2415 97.0942C84.0928 97.2408 82.8432 96.9791 81.7271 97.2315C81.3936 97.306 81.2711 97.8476 81.6127 98.0059C82.6717 98.4982 84.0673 98.2883 85.1925 98.1097C85.7771 98.0174 86.3455 97.8947 86.8946 97.7215C85.7585 98.8163 84.5376 99.8339 83.2438 100.766C79.3258 103.585 74.8303 104.889 70.0768 105.361C67.9673 105.571 65.8315 105.71 63.7128 105.744C62.7102 105.76 61.6222 105.67 60.6894 105.773C59.7657 105.877 58.694 106.272 57.6848 106.215C57.1731 106.183 56.7603 105.943 56.4922 105.595C56.2341 105.853 56.009 106.135 55.8363 106.46C55.2664 107.52 55.9311 108.779 57.1491 108.852C58.1584 108.909 59.2332 108.514 60.1561 108.411C61.0901 108.308 62.1762 108.398 63.179 108.381C65.2982 108.348 67.435 108.208 69.5435 108C74.2947 107.526 78.7902 106.222 82.7113 103.402Z" fill="#AD2518"/>
<path d="M178.256 45.2398L10.9632 46.6686C10.9632 46.6686 10.9484 46.693 10.9241 46.7336C11.0178 46.7845 11.1115 46.8354 11.2081 46.8821C11.3326 46.946 11.3449 47.1415 11.218 47.206C10.9772 47.3282 10.7309 47.4414 10.4807 47.5521C8.77528 50.873 3.43755 63.1718 9.80323 76.7347C11.8013 76.5059 13.7782 76.1597 15.7535 75.8071C15.9403 75.7743 16.1025 75.9808 15.9575 76.1275C15.3602 76.7374 14.7335 77.3185 14.0786 77.8702C13.2461 78.5699 12.3712 79.2301 11.4517 79.822C12.3099 81.2535 13.3076 82.6934 14.4641 84.1318C14.4641 84.1318 64.7156 79.4574 100.16 79.1535C135.605 78.8529 178.918 82.7272 178.918 82.7272C178.918 82.7272 180.944 79.283 182.347 73.8828C179.883 72.9068 177.48 71.7724 175.087 70.6457C174.917 70.5656 174.993 70.3116 175.169 70.3109C176.119 70.3054 177.067 70.2764 178.013 70.2339C179.682 70.1561 181.344 70.0353 183.011 69.9339C183.064 69.9311 183.119 69.9279 183.173 69.9247C184.265 63.0167 183.841 54.1073 178.256 45.2398Z" fill="#F2BF5E"/>
<path d="M168.629 78.0057C154.213 76.0055 139.784 74.6473 125.271 73.9043C112.006 73.2263 98.7277 72.9317 85.4661 73.1871C71.9406 73.4496 58.4223 74.2715 45.0398 75.9868C34.1971 77.3762 23.5257 79.4446 13.029 82.2292C13.479 82.8629 13.9561 83.4968 14.465 84.1314C14.465 84.1314 64.7172 79.4568 100.162 79.1546C135.606 78.8524 178.919 82.7266 178.919 82.7266C178.919 82.7266 179.562 81.634 180.374 79.7169C176.461 79.1265 172.546 78.5519 168.629 78.0057Z" fill="#E8B24F"/>
<path d="M178.258 45.2393L10.9642 46.6683C10.9642 46.6683 10.9514 46.6922 10.9252 46.7332C11.0189 46.7841 11.113 46.8349 11.2078 46.882C11.3324 46.946 11.3447 47.1415 11.2178 47.2059C10.9779 47.3262 10.732 47.441 10.4833 47.5496C9.43103 49.5974 7.00462 55.0474 6.78098 62.1015C19.934 64.3941 33.2472 65.5176 46.5559 66.0136C60.3104 66.5263 74.065 66.3931 87.8056 66.1357C101.23 65.8829 114.65 65.4947 128.084 65.5244C142.869 65.5557 157.652 64.5357 172.352 63.3744C176.111 63.0777 179.869 62.7538 183.626 62.4213C183.41 57.0794 181.981 51.1487 178.258 45.2393Z" fill="#DEA131"/>
<path d="M177.477 38.1871C177.477 38.1871 124.788 43.238 99.005 43.4588C70.5402 43.7026 13.021 39.5907 13.021 39.5907C13.021 39.5907 10.2523 41.0493 7.80117 44.7685C7.87786 44.8219 7.95381 44.8772 8.03114 44.9305C8.55364 45.2871 9.08346 45.6316 9.62336 45.9632C10.1398 46.2817 10.6636 46.6103 11.2083 46.882C11.3328 46.946 11.3451 47.1415 11.2182 47.2059C10.199 47.7173 9.09692 48.1095 8.01734 48.4978C7.1987 48.7934 6.3738 49.0716 5.54558 49.3455C4.60116 52.0259 3.99792 55.3414 4.12936 59.3991C4.12936 59.3991 29.0566 62.8104 99.6233 62.5953C166.185 62.3929 185.393 58.2391 185.393 58.2391C184.913 43.3609 177.477 38.1871 177.477 38.1871Z" fill="#FFD485"/>
<path d="M17.498 44.8994C17.5882 44.8614 17.6758 44.824 17.762 44.7887C17.7616 44.7871 17.5709 44.8674 17.474 44.9088C17.4779 44.9078 17.481 44.9071 17.4842 44.9062C17.4888 44.9034 17.4921 44.9026 17.498 44.8994Z" fill="#FFDD9E"/>
<path d="M174.558 48.2269C174.085 47.8889 173.602 47.4448 173.025 47.2986C172.317 47.1194 171.488 47.2655 170.772 47.2992C170.207 47.3261 169.78 47.403 169.3 47.2914C168.453 47.0934 167.63 47.0136 166.765 46.9996C166.611 46.9967 166.455 46.9889 166.304 46.9904C166.357 46.9892 166.75 47.05 166.387 47.0043C166.096 46.9663 165.806 46.9332 165.519 46.8786C164.638 46.7082 163.811 46.4687 162.902 46.4279C161.63 46.3686 160.323 46.4198 159.059 46.5157C153.891 46.9115 148.716 47.2348 143.536 47.4921C133.173 48.0057 122.787 48.3262 112.399 48.4367C102 48.5482 91.5926 48.4563 81.1879 48.2153C70.7247 47.975 60.2653 47.5853 49.806 47.104C44.7669 46.8737 39.73 46.6308 34.6945 46.3288C33.5319 46.2595 32.3707 46.1933 31.2111 46.0922C30.6567 46.044 30.1009 45.9892 29.5487 45.9283C29.5171 45.9258 29.487 45.9212 29.453 45.9176C29.1776 45.8792 28.8994 45.845 28.6237 45.805C27.4789 45.6397 26.341 45.4365 25.2082 45.1889C23.9153 44.9051 22.6219 44.4817 21.3078 44.3241C21.1263 44.302 20.9471 44.2811 20.7648 44.2592C20.5784 44.285 20.3893 44.3114 20.2029 44.3371C20.1816 44.3355 20.1568 44.3331 20.1218 44.3315C19.764 44.3084 19.3677 44.3692 19.0206 44.4161C18.5467 44.4824 18.1762 44.6162 17.7618 44.7886C17.7084 44.8313 17.5826 44.8731 17.4836 44.9064C17.3946 44.9441 17.4148 44.9356 17.4734 44.9089C17.4342 44.9221 17.3976 44.9347 17.3737 44.9441C16.2666 45.379 15.4093 46.4423 15.8574 47.6791C16.0472 48.205 16.2432 48.7554 16.5251 49.2428C16.8822 49.8634 17.55 50.4912 18.1079 50.9703C18.5143 51.3179 18.9455 51.5729 19.4415 51.7687C19.5064 51.794 19.5638 51.8159 19.6135 51.8364C19.5525 51.8136 19.4957 51.7915 19.4575 51.7786C19.5141 51.7972 19.57 51.8213 19.6269 51.8417C20.2529 52.0879 19.9156 51.9527 19.6439 51.8477C20.0865 52.0154 20.5247 52.2014 20.9679 52.3724C21.5296 52.588 22.1026 52.7542 22.6841 52.9114C24.9661 53.5235 27.2946 53.9358 29.6305 54.2392C34.8373 54.9146 40.0599 55.1147 45.294 55.3637C55.7996 55.8662 66.3115 56.2878 76.8239 56.5658C87.3312 56.8452 97.8439 56.9833 108.35 56.9194C118.845 56.8565 129.34 56.6209 139.805 56.0266C145.038 55.7304 150.265 55.3663 155.484 54.9337C158.347 54.6966 161.239 54.5038 164.043 53.9082C164.611 53.7891 165.128 53.5342 165.651 53.3017C165.777 53.2445 165.905 53.1901 166.028 53.1301C166.375 52.9539 165.889 53.1735 165.865 53.1897C166.3 52.8674 167.205 52.733 167.736 52.6196C168.474 52.4599 169.128 52.2381 169.809 51.9216C170.279 51.7008 170.755 51.6581 171.352 51.5593C172.022 51.4492 172.784 51.4111 173.403 51.1429C174.034 50.8698 174.402 50.3239 174.824 49.8199C175.284 49.27 175.14 48.6413 174.558 48.2269Z" fill="#FFDD9E"/>
<path d="M94.9435 45.4194C90.5516 44.8688 86.1428 44.4158 81.7211 44.2923C77.2227 44.1672 72.7244 44.0421 68.2248 43.9173C59.3154 43.6678 50.412 43.4806 41.5045 43.3584C38.9963 43.3242 36.4687 43.2015 33.9662 43.2954C32.69 43.3442 31.4139 43.393 30.1374 43.4402C29.5645 43.4604 28.9668 43.4385 28.404 43.5374C27.7878 43.6496 27.1783 43.8153 26.5689 43.9552C26.5069 43.9689 26.5162 44.0547 26.5734 44.0698C27.6116 44.3635 28.5756 44.6256 29.6509 44.7218L32.9653 45.0161C35.2163 45.2146 37.4634 45.2811 39.7174 45.3666L53.0852 45.8704C61.9908 46.2072 70.9038 46.3108 79.8094 46.5233C82.2827 46.58 84.7442 46.5569 87.2139 46.523C89.7791 46.486 92.3129 46.317 94.8692 46.1251C95.2552 46.0963 95.3874 45.4762 94.9435 45.4194Z" fill="#FFDD9E"/>
<path d="M168.352 41.0578C167.358 41.1226 166.354 41.1452 165.375 41.303C164.433 41.4532 163.496 41.6074 162.556 41.7519C160.711 42.0392 158.864 42.3115 157.012 42.5627C153.315 43.0667 149.603 43.4844 145.879 43.8275C138.345 44.5233 130.797 44.8407 123.228 45.1411C121.141 45.2228 119.054 45.2873 116.967 45.3277C115.94 45.3506 114.9 45.3113 113.887 45.4636C112.743 45.6384 111.614 45.7749 110.457 45.8649C110.167 45.8887 110.066 46.3526 110.401 46.3951C112.267 46.6309 114.098 47.0325 115.978 47.0902C117.894 47.1513 119.813 47.1943 121.728 47.2211C125.56 47.2722 129.385 47.1681 133.21 47.0175C140.81 46.7145 148.383 46.1128 155.936 45.3398C160.226 44.9004 164.613 44.5716 168.778 43.521C170.169 43.1708 169.837 40.9604 168.352 41.0578Z" fill="#FFDD9E"/>
<path d="M24.6906 56.0407C24.101 55.6697 23.4125 55.4511 22.7597 55.2029C22.0463 54.9302 21.3351 54.6395 20.5888 54.4785C19.1045 54.1579 17.6725 54.0488 16.1614 54.0077C15.1559 53.9787 15.0599 55.3874 15.9832 55.6545C17.3724 56.054 18.7252 56.4644 20.1415 56.7588C20.8082 56.8982 21.4905 56.9456 22.1656 57.0294C22.9017 57.1222 23.645 57.2839 24.3874 57.2697C25.0904 57.2568 25.2509 56.3914 24.6906 56.0407Z" fill="#FFDD9E"/>
<path d="M101.985 79.2234C97.964 77.4356 95.7328 73.3644 94.3352 69.3926C92.6579 64.6239 91.5932 59.3639 92.3193 54.3119C92.9104 50.2086 95.1886 46.0335 98.4976 43.4611C98.4976 43.4611 98.6968 42.6879 97.6693 42.0704C96.3612 41.2846 93.0282 42.1846 92.0825 42.8279C87.0687 46.2381 86.3013 48.8952 85.436 54.809C84.9409 58.1821 85.5566 62.4454 86.2417 65.7694C87.2546 70.6676 89.0139 75.4592 92.7567 79.0171C94.8498 81.0059 96.6207 82.2927 99.4344 81.6016C101.24 81.1582 101.985 79.2234 101.985 79.2234Z" fill="#A54E48"/>
<path d="M109.219 79.162C107.698 77.6109 106.504 75.8953 105.481 74.5582C102.792 71.0449 100.93 66.9197 99.9321 62.6151C98.6211 56.9624 98.6114 50.9041 101.759 45.8353C102.53 44.5969 103.897 43.8795 105.135 43.3344C105.135 43.3344 104.757 41.8193 103.465 41.9084C100.681 42.1 98.76 43.3577 97.0775 45.4797C93.8458 49.5558 93.5864 55.1131 94.3112 60.0572C95.0764 65.2883 96.7955 71.1984 99.8356 75.5652C101.372 77.7722 102.777 79.791 105.455 80.3441C107.467 80.7591 109.219 79.162 109.219 79.162Z" fill="#A54E48"/>
<path d="M89.4692 79.3601C83.5553 73.7223 79.636 62.7042 80.7032 53.4938C80.9896 51.0068 82.139 48.6861 83.5515 46.6004C85.1796 44.1897 88.431 43.3877 88.431 43.3877C87.3676 41.365 82.2405 41.8076 80.9285 42.5975C76.723 45.1344 74.3215 49.3748 73.7827 54.1885C73.3964 57.6328 73.6986 61.225 74.4547 64.5986C74.792 66.1031 75.2513 67.5719 75.8132 69.0083C77.7476 73.9668 80.7769 79.5105 86.2013 80.3527C88.0846 80.6481 89.4692 79.3601 89.4692 79.3601Z" fill="#A54E48"/>
<path d="M102.192 79.3338C101.82 79.1695 101.464 78.9835 101.122 78.7822C100.871 78.9311 100.589 79.0534 100.275 79.1316C97.7126 79.7618 96.0109 78.7477 94.1441 77.0548C95.1448 77.2266 96.1517 77.1724 97.1273 76.9085C97.3242 76.8542 97.2781 76.5911 97.0889 76.5675C96.093 76.4446 95.0953 76.2928 94.1166 76.0516C93.5878 75.9192 93.08 75.6763 92.567 75.4831C91.1307 73.8693 90.0335 72.0518 89.1786 70.1187C90.6288 71.3284 92.4148 72.1695 94.1941 72.4994C94.283 72.5152 94.3597 72.3874 94.2641 72.3421C92.8565 71.6847 91.4963 70.8255 90.319 69.8102C89.4986 69.103 88.8105 68.2887 88.1616 67.4386C87.722 66.084 87.3727 64.6965 87.0829 63.2993C86.9196 62.506 86.7601 61.6583 86.6192 60.7817C86.9025 61.2308 87.2106 61.6634 87.539 62.0822C88.7041 63.5547 90.258 64.7662 92.0409 65.3594C92.1976 65.4118 92.3516 65.1853 92.2153 65.0742C90.8772 63.9816 89.6104 62.8401 88.5323 61.4806C87.9837 60.7903 87.512 60.0342 87.1178 59.2432C86.8112 58.6307 86.6433 57.7402 86.1847 57.1967C86.0572 55.5087 86.0582 53.8352 86.2769 52.3372C86.3588 51.7729 86.442 51.241 86.5272 50.7311C86.7216 51.5944 87.0785 52.4498 87.4099 53.1701C88.0817 54.6309 89.0314 55.9188 90.2481 56.9709C90.4532 57.1494 90.7281 56.8858 90.5506 56.6745C89.5899 55.5292 88.7763 54.2384 88.2598 52.8322C88.0315 52.2088 87.8579 51.5666 87.7365 50.9148C87.6093 50.2231 87.6239 49.4786 87.4166 48.812C87.2835 48.3756 86.3692 49.9158 86.478 50.4982C86.1373 51.7642 85.8937 53.2028 85.6412 54.92C85.5453 55.5741 85.4924 56.2624 85.4727 56.9736C85.3999 57.0193 85.3414 57.0909 85.3117 57.1933C85.1773 57.6447 85.2947 58.1369 85.4825 58.6063C85.577 61.0899 85.9958 63.6895 86.4485 65.8783C86.476 66.0183 86.5056 66.1559 86.5345 66.2937C86.4952 66.3933 86.4932 66.5147 86.5463 66.6465C86.5892 66.748 86.6352 66.8488 86.681 66.9513C87.729 71.4712 89.4904 75.8306 92.96 79.1286C95.0531 81.1173 96.8279 82.4032 99.6389 81.7127C101.445 81.2692 102.192 79.3338 102.192 79.3338Z" fill="#AD2518"/>
<path d="M109.424 79.2731C108.945 78.7848 108.499 78.2814 108.081 77.7777C107.543 77.9342 106.932 78.0054 106.297 77.8736C103.617 77.3211 102.215 75.3033 100.676 73.0952C100.573 72.9467 100.471 72.7959 100.371 72.6431C100.694 72.9009 101.028 73.1353 101.327 73.3475C102.144 73.9275 103.115 74.3572 104.126 74.3952C104.438 74.4072 104.485 73.9707 104.208 73.8723C103.279 73.5427 102.463 73.1178 101.671 72.5277C100.952 71.9889 100.346 71.1523 99.5347 70.7588C99.4329 70.7099 99.3297 70.7132 99.2419 70.7472C98.0436 68.525 97.1117 66.0533 96.4102 63.5536C96.7064 63.9166 97.0163 64.2588 97.2886 64.5691C98.1456 65.5469 99.0377 66.2793 100.121 66.9899C100.312 67.1151 100.51 66.8446 100.361 66.685C99.539 65.79 98.734 64.8528 97.9596 63.9166C97.2599 63.0689 96.7069 61.9601 95.8399 61.2801C95.5564 60.0316 95.3277 58.7901 95.1506 57.5876C94.9244 56.0416 94.7971 54.4382 94.8226 52.8364C95.0617 53.4761 95.406 54.1103 95.6482 54.6024C96.1888 55.6971 96.9507 56.6346 97.7826 57.5202C97.8892 57.6369 98.0898 57.4919 98.0075 57.3536C97.4221 56.3772 96.9558 55.3453 96.479 54.3124C96.2356 53.7878 96.0236 53.2484 95.8418 52.698C95.6658 52.1738 95.5973 51.5934 95.2666 51.1458C95.1749 51.0219 95.0506 50.9665 94.9299 50.9673C94.9735 50.5333 95.0298 50.1014 95.101 49.6727C94.949 50.1233 94.8216 50.5815 94.7096 51.0463C94.6348 51.1064 94.5777 51.1967 94.5623 51.3214C94.545 51.4604 94.5439 51.6074 94.5572 51.7578C94.0182 54.5116 94.1146 57.4332 94.5147 60.1687C95.282 65.3992 97.0007 71.3077 100.04 75.6763C101.577 77.8833 102.983 79.9001 105.659 80.4536C107.673 80.87 109.424 79.2731 109.424 79.2731Z" fill="#AD2518"/>
<path d="M89.6745 79.4695C89.1604 78.9795 88.6635 78.4472 88.1818 77.8818C87.8313 77.9364 87.4483 77.9456 87.0432 77.8843C86.2359 77.7575 85.4832 77.5273 84.7771 77.2112C84.9508 77.1938 85.1233 77.1664 85.2883 77.1218C85.5297 77.0564 85.588 76.7224 85.3683 76.5907C84.7031 76.192 83.8588 76.1037 83.1129 75.9306C82.9157 75.8865 82.7176 75.8409 82.5213 75.7949C80.7437 74.3301 79.3515 72.2771 78.2338 70.0935C78.3724 70.2005 78.5173 70.3025 78.6618 70.4064C79.9145 71.2751 81.5477 72.2147 83.1114 71.8939C83.384 71.838 83.3922 71.4889 83.1931 71.3504C82.0362 70.5251 80.5877 70.2335 79.3701 69.4735C78.5798 68.9816 77.8603 68.3822 77.1551 67.7689C76.9814 67.3564 76.813 66.946 76.6523 66.5371C76.0928 65.1019 75.6335 63.633 75.2962 62.1286C75.1434 61.4449 75.0095 60.7514 74.8951 60.0546C75.187 60.4705 75.5341 60.8589 75.8777 61.2066C76.7822 62.1259 78.2056 63.5201 79.5359 63.6702C79.8528 63.7069 80.0833 63.2954 79.9172 63.0381C79.5702 62.4978 79.0008 62.2081 78.4785 61.8583C77.9123 61.478 77.3465 61.0994 76.8263 60.6558C76.0146 59.962 75.1876 59.039 74.6315 58.0691C74.4105 55.952 74.3909 53.8089 74.6244 51.7184C74.6604 51.4003 74.7038 51.0821 74.757 50.7684C74.3821 51.8962 74.1245 53.0793 73.9888 54.3011C73.6021 57.7439 73.9054 61.3357 74.6603 64.7097C74.9976 66.2141 75.4592 67.6842 76.0187 69.1194C77.9529 74.0797 80.982 79.62 86.4072 80.4654C88.2898 80.7575 89.6745 79.4695 89.6745 79.4695Z" fill="#AD2518"/>
<path d="M81.245 50.425C79.9062 45.7151 81.3693 43.2161 81.5712 42.6409C81.5809 42.6126 81.5511 42.5872 81.5245 42.5921C80.3244 42.7998 79.9833 44.7341 79.9062 45.7151C79.7935 47.1815 79.8947 49.3941 80.8674 50.5744C80.982 50.715 81.2948 50.606 81.245 50.425Z" fill="#AD2518"/>
<path d="M79.8107 56.8972C79.4163 56.127 78.596 55.5372 78.1007 54.8112C77.5687 54.0356 77.1441 53.1711 76.8647 52.2721C76.5854 51.3661 76.4436 50.4155 76.4148 49.4696C76.3894 48.654 76.5848 47.7816 76.3653 46.9851C76.35 46.9319 76.2893 46.916 76.2465 46.9526C75.5522 47.547 75.4252 48.5818 75.3512 49.4429C75.261 50.5342 75.4151 51.6389 75.7244 52.6841C76.0271 53.6982 76.4752 54.6622 77.0841 55.5274C77.6132 56.2778 78.3759 57.2998 79.3029 57.5366C79.6813 57.6339 79.9879 57.2432 79.8107 56.8972Z" fill="#AD2518"/>
<path d="M92.2907 51.1108C91.5787 48.731 91.1043 45.9709 92.1959 43.6319C92.286 43.4385 92.1434 43.1374 91.8958 43.2233C90.5336 43.6872 90.5691 45.3688 90.5876 46.5711C90.6134 48.1757 90.6188 50.186 91.9725 51.2868C92.1024 51.3943 92.3488 51.3086 92.2907 51.1108Z" fill="#AD2518"/>
<path d="M99.4122 49.6874C99.27 48.6385 99.1197 47.5433 99.2298 46.4884C99.3241 45.5791 99.8654 44.6205 99.7537 43.7229C99.7297 43.5217 99.4519 43.4269 99.2959 43.5262C98.4153 44.0686 98.2587 45.5236 98.2254 46.4643C98.184 47.6833 98.4021 48.8066 99.1228 49.801C99.2269 49.9477 99.4366 49.8661 99.4122 49.6874Z" fill="#AD2518"/>
<path d="M67.694 93.9941C66.1537 93.6219 64.5798 93.4635 63.0536 93.0238C62.3355 92.8161 61.6168 92.5791 60.916 92.317C60.1504 92.0296 59.374 91.548 58.5703 91.3979C58.2211 91.333 57.8851 91.7466 58.1871 92.0356C58.7433 92.5704 59.5326 92.8467 60.2398 93.1297C61.0701 93.4597 61.9164 93.7321 62.7882 93.9309C64.3878 94.2952 66.0587 94.5693 67.6878 94.2805C67.8336 94.2563 67.8334 94.0284 67.694 93.9941Z" fill="#AD2518"/>
<path d="M58.1665 95.9329C56.4165 95.1692 54.631 94.454 52.917 93.6122C52.1321 93.226 51.3578 92.8096 50.5946 92.3782C49.8487 91.9564 49.1944 91.4582 48.3243 91.3695C48.1223 91.3491 48.0017 91.5933 48.0927 91.7554C48.5236 92.5285 49.2755 92.8988 50.0229 93.3289C50.914 93.8405 51.8332 94.2917 52.7677 94.7096C54.5033 95.4787 56.2247 96.0475 58.1053 96.3315C58.353 96.3699 58.3575 96.0148 58.1665 95.9329Z" fill="#AD2518"/>
<path d="M49.8312 96.1239C48.4492 95.2425 47.0112 94.4959 45.582 93.6954C44.8683 93.2966 44.1621 92.8804 43.4663 92.4461C42.8406 92.0548 42.1888 91.594 41.4623 91.4229C41.18 91.3568 40.8158 91.6842 41.0286 91.9695C41.9456 93.2017 43.6991 93.9179 45.0324 94.6129C46.5347 95.3952 48.035 96.0537 49.6869 96.4517C49.8853 96.5006 50.0077 96.237 49.8312 96.1239Z" fill="#AD2518"/>
<path d="M41.2016 95.8961C40.0121 94.7613 38.5723 93.9582 37.0973 93.2502C35.7771 92.6159 34.2157 91.7775 32.7127 91.9744C32.3531 92.0226 32.3636 92.5087 32.6081 92.6774C33.8421 93.5283 35.5234 93.8222 36.888 94.4472C38.2505 95.0727 39.5662 95.7997 41.021 96.1967C41.1892 96.2411 41.3369 96.0247 41.2016 95.8961Z" fill="#AD2518"/>
<path d="M33.0374 95.9321C32.2275 95.2241 31.4652 94.6958 30.4217 94.3465C29.4929 94.0358 28.3184 93.6535 27.3489 93.9471C27.065 94.0334 26.9306 94.4848 27.246 94.6358C28.092 95.0447 29.0896 95.0636 29.9891 95.3332C30.9302 95.6183 31.9182 95.9228 32.8262 96.2835C33.0203 96.3611 33.1921 96.0679 33.0374 95.9321Z" fill="#AD2518"/>
<path d="M82.3314 102.29C82.5223 102.211 82.4355 101.877 82.2325 101.893C80.8793 101.993 79.4644 102.045 78.1141 101.877C76.747 101.707 75.4554 101.256 74.0905 101.116C73.8283 101.09 73.647 101.477 73.8578 101.649C76.0665 103.465 79.8113 103.317 82.3314 102.29Z" fill="#AD2518"/>
<path d="M73.4618 106.066C72.1397 105.465 70.7531 105.049 69.4003 104.52C68.6429 104.225 67.8906 103.929 67.1569 103.575C66.5195 103.269 65.8826 102.926 65.1854 102.775C64.8187 102.697 64.5277 103.12 64.8027 103.414C65.7996 104.469 67.4691 105.03 68.814 105.507C70.28 106.027 71.833 106.396 73.3906 106.313C73.5083 106.306 73.5943 106.126 73.4618 106.066Z" fill="#AD2518"/>
<path d="M65.6604 106.87C64.5724 106.183 63.4948 105.531 62.3292 104.984C61.4211 104.556 60.1822 103.667 59.1554 103.766C58.9045 103.79 58.6332 104.065 58.8174 104.328C59.4632 105.241 60.9098 105.578 61.9001 106.02C63.0656 106.539 64.255 106.925 65.4738 107.298C65.7334 107.376 65.8858 107.01 65.6604 106.87Z" fill="#AD2518"/>
<path d="M95.2982 81.6071C95.5024 81.3818 95.2552 81.0204 94.9714 81.1706C94.3507 81.5049 93.768 81.8971 93.1439 82.2185C92.5252 82.5368 91.8413 82.7781 91.2665 83.1666C91.0672 83.3009 91.106 83.678 91.3909 83.6657C92.7997 83.608 94.3794 82.6322 95.2982 81.6071Z" fill="#AD2518"/>
<path d="M83.7998 99.2649C83.9807 99.0437 83.8736 98.7251 83.5768 98.6972C82.6716 98.619 81.8547 98.6811 80.9538 98.771C80.0877 98.8575 79.2829 98.7404 78.5636 99.31C78.2855 99.5313 78.3307 99.9966 78.5531 100.231C79.2609 100.979 80.3352 100.821 81.2676 100.668C82.3043 100.498 83.1282 100.07 83.7998 99.2649Z" fill="#9C3F1B"/>
<path d="M75.7278 103.45C75.8022 103.421 75.7731 103.312 75.7113 103.292C74.6275 102.935 73.6007 102.742 72.4753 102.537C71.606 102.381 70.4512 101.884 69.6214 102.324C69.434 102.424 69.3601 102.687 69.4688 102.869C70.0122 103.772 71.4621 103.819 72.4142 103.905C73.6277 104.013 74.6055 103.899 75.7278 103.45Z" fill="#9C3F1B"/>
<path d="M66.0383 104.831C65.4471 104.397 64.7852 104.077 64.1019 103.817C63.4855 103.582 62.7541 103.291 62.0982 103.502C61.9047 103.564 61.7827 103.829 61.9601 103.987C62.4466 104.42 63.1185 104.504 63.734 104.66C64.4469 104.841 65.161 105.043 65.88 105.187C66.1024 105.231 66.2197 104.964 66.0383 104.831Z" fill="#9C3F1B"/>
<path d="M59.4432 104.914C59.1889 104.857 58.9393 104.838 58.6812 104.871C58.4011 104.903 58.2538 105.026 58.0489 105.208C57.9102 105.331 58.0522 105.527 58.2116 105.501C58.3904 105.469 58.5625 105.488 58.7444 105.449C58.9223 105.414 59.1101 105.412 59.2881 105.442C59.6287 105.498 59.7935 104.991 59.4432 104.914Z" fill="#9C3F1B"/>
<path d="M58.713 93.2169C57.8169 92.7393 56.9441 92.4251 55.963 92.1586C55.0843 91.9184 54.0977 91.5618 53.1916 91.8205C52.8917 91.9056 52.737 92.3102 52.9862 92.5416C53.6806 93.1869 54.6709 93.3199 55.5688 93.507C56.5797 93.7177 57.501 93.8472 58.5358 93.8292C58.8456 93.8244 59.0192 93.3788 58.713 93.2169Z" fill="#9C3F1B"/>
<path d="M66.9823 91.6938C65.5675 91.1642 63.4271 90.522 62.1027 91.5895C61.9403 91.7198 61.9904 92.0129 62.1626 92.1081C62.8421 92.4774 63.5456 92.4039 64.3031 92.3964C65.1866 92.385 66.0285 92.2666 66.9021 92.2025C67.1957 92.1811 67.2648 91.8012 66.9823 91.6938Z" fill="#9C3F1B"/>
<path d="M76.4686 88.6225C76.6646 88.5374 76.5944 88.2476 76.4179 88.1914C75.0569 87.7538 73.3133 87.4995 71.9627 88.1557C71.5198 88.3732 71.6742 88.9874 72.0739 89.1347C73.4635 89.6464 75.1858 89.1772 76.4686 88.6225Z" fill="#9C3F1B"/>
<path d="M80.6493 85.565C81.3754 85.3684 82.0254 85.1269 82.6984 84.802C82.8378 84.7362 82.8193 84.4835 82.6592 84.4578C81.2499 84.2273 79.3027 84.3191 78.1439 85.2521C77.8216 85.512 78.0971 85.9924 78.4451 86.0196C79.2141 86.0817 79.9184 85.7628 80.6493 85.565Z" fill="#9C3F1B"/>
<path d="M86.5905 95.6526C87.4109 95.3962 88.1672 95.0592 88.7802 94.447C89.0968 94.1315 88.774 93.7026 88.3874 93.7455C87.5415 93.8425 86.7645 94.1536 85.9501 94.3929C85.2452 94.598 84.5195 94.6719 83.9388 95.1482C83.6563 95.3809 83.8438 95.7866 84.1261 95.8993C84.8994 96.2037 85.8317 95.8901 86.5905 95.6526Z" fill="#9C3F1B"/>
<path d="M90.6467 90.454C91.5591 89.6118 92.4201 88.6961 92.9627 87.5749C93.0275 87.4396 92.898 87.2802 92.7515 87.3582C91.7082 87.9239 90.7531 88.63 89.707 89.1982C88.8737 89.6512 87.4579 90.1785 87.1715 91.1616C87.0788 91.4766 87.2675 91.7904 87.571 91.8925C88.6279 92.2472 89.9249 91.1244 90.6467 90.454Z" fill="#9C3F1B"/>
<path d="M49.9136 93.9105C49.098 93.4094 48.2628 92.984 47.3895 92.5628C46.6315 92.1958 45.8958 91.6195 45.0471 91.5134C44.735 91.4738 44.4635 91.9075 44.6547 92.1689C45.1916 92.9019 46.1392 93.213 46.9636 93.541C47.9278 93.9239 48.8489 94.0931 49.8672 94.0706C49.9534 94.0699 49.9891 93.959 49.9136 93.9105Z" fill="#9C3F1B"/>
<path d="M42.6575 93.8151C41.839 93.3026 41.0062 92.8973 40.112 92.5332C39.2558 92.1803 38.3178 91.6993 37.3765 91.7061C37.0457 91.7074 36.7728 92.1657 37.0678 92.4133C37.7898 93.0172 38.7673 93.2535 39.6511 93.5304C40.6137 93.8308 41.5516 94.0598 42.5484 94.1946C42.7612 94.2227 42.8193 93.9146 42.6575 93.8151Z" fill="#9C3F1B"/>
<path d="M34.9467 94.2665C33.534 93.5378 31.8219 92.668 30.1734 92.8925C29.843 92.9386 29.8049 93.4298 30.0706 93.5811C31.4305 94.361 33.2409 94.4259 34.7528 94.7085C35.0043 94.7546 35.2124 94.404 34.9467 94.2665Z" fill="#9C3F1B"/>
<path d="M28.6112 96.017C28.8794 96.014 29.0245 95.6325 28.7632 95.4939C27.7808 94.967 26.0453 94.6969 25.3039 95.7728C25.0861 96.0895 25.3695 96.4661 25.7018 96.4972C26.1677 96.5433 26.6318 96.2999 27.0868 96.2123C27.5839 96.1143 28.1053 96.0257 28.6112 96.017Z" fill="#9C3F1B"/>
<path d="M91.1952 53.6078C91.1913 52.4156 90.7275 51.2397 90.3654 50.1196C90.0283 49.0709 89.8831 47.8121 89.1091 46.9777C88.8919 46.7452 88.5719 46.8871 88.4634 47.1387C87.9934 48.2297 88.445 49.6003 88.7339 50.6886C89.0379 51.8371 89.4832 53.0988 90.3583 53.9356C90.6525 54.2145 91.1966 54.0408 91.1952 53.6078Z" fill="#9C3F1B"/>
<path d="M93.5815 48.8965C94.0401 48.1036 94.0255 47.0954 94.3313 46.2387C94.6385 45.3851 95.3441 44.5789 95.4863 43.6887C95.5152 43.502 95.3902 43.3518 95.1943 43.3834C94.1632 43.5576 93.4479 44.7789 93.0585 45.6409C92.6287 46.5924 92.1882 47.8989 92.7393 48.8838C92.9167 49.2004 93.3982 49.2133 93.5815 48.8965Z" fill="#9C3F1B"/>
<path d="M92.1056 62.3046C92.003 61.0058 91.2176 59.9065 90.5344 58.8354C89.7958 57.6796 88.9843 56.7027 88.038 55.7213C87.8106 55.4879 87.5061 55.7762 87.6148 56.0392C88.1278 57.3064 88.667 58.4981 89.3212 59.7043C89.902 60.7733 90.4108 61.9346 91.392 62.6966C91.661 62.9041 92.1335 62.6378 92.1056 62.3046Z" fill="#9C3F1B"/>
<path d="M93.1647 69.2977C93.0448 68.2622 92.0718 67.2547 91.415 66.4895C90.6538 65.6035 89.8399 64.9034 88.8794 64.2571C88.5496 64.0354 88.0808 64.4683 88.3122 64.806C88.9373 65.7224 89.584 66.5989 90.2496 67.488C90.8482 68.2901 91.4214 69.4232 92.3019 69.9358C92.7764 70.2129 93.2186 69.7764 93.1647 69.2977Z" fill="#9C3F1B"/>
<path d="M95.6127 74.9639C95.3196 74.1478 94.6833 73.6676 93.8948 73.3599C93.4856 73.1978 92.2423 72.8534 92.1351 73.5656C92.0589 74.0715 93.0613 74.3586 93.3875 74.5173C93.9939 74.815 94.5481 75.1603 95.1909 75.3713C95.4182 75.4441 95.7016 75.2094 95.6127 74.9639Z" fill="#9C3F1B"/>
<path d="M82.7043 46.8859C83.0795 46.2294 83.2428 45.5067 83.7083 44.8934C83.9298 44.605 84.1682 44.3436 84.432 44.093C84.6961 43.8424 84.8887 43.5009 85.1548 43.2584C85.2433 43.1776 85.205 43.011 85.0859 42.982C84.5579 42.8581 84.2187 42.7528 83.6744 42.9506C83.2107 43.1198 82.7753 43.3889 82.4223 43.7342C81.6643 44.4809 81.0598 45.5951 81.3054 46.677C81.4531 47.3187 82.3783 47.461 82.7043 46.8859Z" fill="#9C3F1B"/>
<path d="M79.9414 54.5469C80.1357 53.5194 79.6762 52.4529 79.4732 51.4572C79.245 50.3503 79.1964 49.0812 79.2206 47.9528C79.2335 47.5041 78.5865 47.2872 78.3603 47.7028C77.6628 48.9956 77.4616 50.1767 77.6375 51.6455C77.7822 52.8422 78.2096 54.3346 79.444 54.8194C79.6332 54.8914 79.9023 54.7449 79.9414 54.5469Z" fill="#9C3F1B"/>
<path d="M79.8566 60.3338C79.7972 59.803 79.415 59.5253 79.0542 59.1577C78.6129 58.7048 78.1832 58.256 77.7932 57.7575C77.0721 56.8374 76.5305 55.7395 75.6452 54.9588C75.4982 54.8262 75.2479 54.9042 75.2408 55.1166C75.2043 56.4121 75.9462 57.5809 76.6866 58.5894C77.2607 59.3683 78.2815 60.9769 79.3723 60.9398C79.7214 60.927 79.8942 60.6577 79.8566 60.3338Z" fill="#9C3F1B"/>
<path d="M81.47 67.4962C81.0511 66.5784 80.1875 66.0236 79.4934 65.3091C78.8194 64.6156 78.1848 63.8776 77.4149 63.2891C77.1247 63.0662 76.7946 63.4196 76.844 63.7129C77.0224 64.796 77.6695 65.7708 78.4023 66.5706C79.148 67.3809 79.8862 68.1449 81.0143 68.2573C81.434 68.3011 81.6183 67.8201 81.47 67.4962Z" fill="#9C3F1B"/>
<path d="M84.9921 74.3742C84.6919 73.6893 83.8804 73.3426 83.2644 72.985C82.5505 72.5725 81.8297 72.2032 81.0923 71.8345C80.7042 71.6412 80.3226 72.0937 80.6187 72.4343C81.2057 73.1064 81.8132 73.6681 82.5495 74.1752C83.1833 74.6128 83.9306 75.1293 84.7298 74.9835C85.0192 74.9321 85.0915 74.605 84.9921 74.3742Z" fill="#9C3F1B"/>
<path d="M100.691 46.3276C101.245 45.8961 101.416 45.0108 101.907 44.4844C102.382 43.9756 103.009 43.5947 103.424 43.0408C103.537 42.8917 103.42 42.6739 103.261 42.6237C101.695 42.1405 99.1603 44.6615 99.9516 46.2202C100.101 46.5179 100.464 46.5018 100.691 46.3276Z" fill="#9C3F1B"/>
<path d="M98.4842 54.0646C98.8986 53.1705 98.2624 52.0254 98.0844 51.1115C97.8781 50.0354 98.0415 48.9241 97.587 47.9099C97.513 47.7453 97.2599 47.7204 97.1425 47.8446C96.3017 48.7467 96.3785 50.0449 96.5177 51.1982C96.634 52.1759 96.8745 53.9445 98.0014 54.2541C98.1663 54.2993 98.4039 54.2349 98.4842 54.0646Z" fill="#9C3F1B"/>
<path d="M100.206 63.859C100.022 62.6306 99.0124 61.4698 98.371 60.4365C97.6967 59.3442 97.1154 58.2165 96.276 57.2413C96.2007 57.153 96.0265 57.2172 96.0339 57.3362C96.1236 58.6779 96.641 59.8819 97.2317 61.0797C97.7764 62.1906 98.4844 63.6941 99.6342 64.2829C99.945 64.442 100.254 64.1939 100.206 63.859Z" fill="#9C3F1B"/>
<path d="M102.377 70.487C101.929 69.7716 101.141 69.2273 100.568 68.6037C99.9457 67.9248 99.399 67.1925 98.7401 66.5522C98.5576 66.3749 98.2377 66.5393 98.3018 66.7962C98.5441 67.7459 99.044 68.5312 99.6539 69.2891C100.225 70.0013 100.942 70.869 101.814 71.1937C102.212 71.3415 102.594 70.837 102.377 70.487Z" fill="#9C3F1B"/>
<path d="M106.036 76.5867C105.871 76.0961 105.427 75.8061 105.03 75.4994C104.598 75.1667 104.11 74.9223 103.637 74.6587C103.267 74.4523 102.869 74.9297 103.172 75.2443C103.546 75.6362 103.91 76.0428 104.337 76.3767C104.721 76.6797 105.13 77.0493 105.637 77.0833C105.885 77.0993 106.117 76.8289 106.036 76.5867Z" fill="#9C3F1B"/>
</svg>
